# Alias OBJ Model File
# Exported from SketchUp, (c) 2000-2006 Google, Inc.
# File units = inches

mtllib CaseStudy2_orig_no_sensors.mtl

g Mesh1 Model

usemtl OffWhite
v 0 0 -0
vt 0 0
vn 0 1 -0
v 120 0 -120
vt 120 120
v 0 0 -240
vt 0 240
f 1/1/1 2/2/1 3/3/1

v 360 0 -0
vt 360 0
f 2/2/1 1/1/1 4/4/1

vn 0 0 -1
v 60 48 -0
vt -60 48
vt -360 0
f 1/1/2 5/5/2 4/6/2

v 0 120 -0
vt 0 120
f 5/5/2 1/1/2 6/7/2

vn 1 0 -0
v 0 48 -60
vt 60 48
f 1/1/3 7/8/3 6/7/3

vt 240 0
f 7/8/3 1/1/3 3/9/3

v 0 48 -90
vt 90 48
f 7/8/3 3/9/3 8/10/3

v 0 48 -150
vt 150 48
f 8/10/3 3/9/3 9/11/3

v 0 48 -180
vt 180 48
f 9/11/3 3/9/3 10/12/3

v 0 96 -180
vt 180 96
f 10/12/3 3/9/3 11/13/3

v 0 120 -240
vt 240 120
f 12/14/3 11/13/3 3/9/3

v 0 96 -150
vt 150 96
f 12/14/3 13/15/3 11/13/3

v 0 96 -90
vt 90 96
f 12/14/3 14/16/3 13/15/3

v 0 96 -60
vt 60 96
f 12/14/3 15/17/3 14/16/3

f 6/7/3 15/17/3 12/14/3

f 15/17/3 6/7/3 7/8/3

usemtl GLASS_CLEAR
f 8/10/3 15/17/3 7/8/3

f 15/17/3 8/10/3 14/16/3

usemtl OffWhite
f 8/10/3 9/11/3 14/16/3

f 13/15/3 14/16/3 9/11/3

usemtl GLASS_CLEAR
f 10/12/3 13/15/3 9/11/3

f 13/15/3 10/12/3 11/13/3

usemtl OffWhite
v 120 120 -240
vt -120 240
vn 0 -1 -0
f 16/18/4 6/1/4 12/3/4

v 120 120 -120
vt -120 120
f 6/1/4 16/18/4 17/19/4

vt -240 120
vn -1 0 -0
vt -120 0
f 16/20/5 2/21/5 17/19/5

v 120 0 -240
vt -240 0
f 2/21/5 16/20/5 18/22/5

vn 0 0 1
vt 120 0
f 16/2/6 3/1/6 18/23/6

f 3/1/6 16/2/6 12/7/6

vt 120 240
f 18/24/1 3/3/1 2/2/1

v 360 120 -120
vt 360 120
f 2/23/6 19/25/6 17/2/6

v 360 0 -120
f 19/25/6 2/23/6 20/4/6

f 2/2/1 4/4/1 20/25/1

f 4/1/5 19/19/5 20/21/5

v 360 120 -0
f 19/19/5 4/1/5 21/7/5

v 270 48 -0
vt -270 48
vt -360 120
f 4/6/2 22/26/2 21/27/2

f 22/26/2 4/6/2 5/5/2

v 90 48 -0
vt -90 48
f 22/26/2 5/5/2 23/28/2

usemtl GLASS_CLEAR
v 60 96 -0
vt -60 96
f 24/29/2 23/28/2 5/5/2

v 90 96 -0
vt -90 96
f 23/28/2 24/29/2 25/30/2

usemtl OffWhite
f 24/29/2 6/7/2 25/30/2

f 5/5/2 6/7/2 24/29/2

v 150 96 -0
vt -150 96
f 25/30/2 6/7/2 26/31/2

v 180 96 -0
vt -180 96
f 26/31/2 6/7/2 27/32/2

v 240 96 -0
vt -240 96
f 27/32/2 6/7/2 28/33/2

v 270 96 -0
vt -270 96
f 28/33/2 6/7/2 29/34/2

f 21/27/2 29/34/2 6/7/2

f 21/27/2 22/26/2 29/34/2

usemtl GLASS_CLEAR
f 22/26/2 28/33/2 29/34/2

v 240 48 -0
vt -240 48
f 28/33/2 22/26/2 30/35/2

usemtl OffWhite
v 180 48 -0
vt -180 48
f 22/26/2 31/36/2 30/35/2

v 150 48 -0
vt -150 48
f 22/26/2 32/37/2 31/36/2

f 22/26/2 23/28/2 32/37/2

f 25/30/2 32/37/2 23/28/2

f 32/37/2 25/30/2 26/31/2

usemtl GLASS_CLEAR
f 26/31/2 31/36/2 32/37/2

f 31/36/2 26/31/2 27/32/2

usemtl OffWhite
f 27/32/2 30/35/2 31/36/2

f 30/35/2 27/32/2 28/33/2

f 6/1/4 17/19/4 21/6/4

f 21/6/4 17/19/4 19/27/4

