# Alias OBJ Model File
# Exported from SketchUp, (c) 2000-2006 Google, Inc.
# File units = inches

mtllib CaseStudy2_orig.mtl

g Mesh1 Model

usemtl OffWhite
v 0 0 -0
vt 0 0
vn 0 1 -0
v 120 0 -120
vt 120 120
v 0 0 -240
vt 0 240
f 1/1/1 2/2/1 3/3/1

v 360 0 -0
vt 360 0
f 2/2/1 1/1/1 4/4/1

v 150 48 -0
vt -150 48
vn 0 0 -1
vt -360 0
f 5/5/2 4/6/2 1/1/2

v 180 48 -0
vt -180 48
f 4/6/2 5/5/2 6/7/2

usemtl GLASS_CLEAR
v 150 96 -0
vt -150 96
f 7/8/2 6/7/2 5/5/2

v 180 96 -0
vt -180 96
f 6/7/2 7/8/2 8/9/2

usemtl OffWhite
v 0 120 -0
vt 0 120
f 7/8/2 9/10/2 8/9/2

v 90 96 -0
vt -90 96
f 10/11/2 9/10/2 7/8/2

v 60 96 -0
vt -60 96
f 11/12/2 9/10/2 10/11/2

v 60 48 -0
vt -60 48
f 12/13/2 9/10/2 11/12/2

f 9/10/2 12/13/2 1/1/2

v 90 48 -0
vt -90 48
f 13/14/2 1/1/2 12/13/2

f 5/5/2 1/1/2 13/14/2

f 10/11/2 5/5/2 13/14/2

f 5/5/2 10/11/2 7/8/2

usemtl GLASS_CLEAR
f 13/14/2 11/12/2 10/11/2

f 11/12/2 13/14/2 12/13/2

usemtl OffWhite
vn 1 0 -0
v 0 48 -60
vt 60 48
f 1/1/3 14/15/3 9/10/3

vt 240 0
f 14/15/3 1/1/3 3/16/3

v 0 48 -90
vt 90 48
f 14/15/3 3/16/3 15/17/3

v 0 48 -150
vt 150 48
f 15/17/3 3/16/3 16/18/3

v 0 48 -180
vt 180 48
f 16/18/3 3/16/3 17/19/3

v 0 96 -180
vt 180 96
f 17/19/3 3/16/3 18/20/3

v 0 120 -240
vt 240 120
f 19/21/3 18/20/3 3/16/3

v 0 96 -150
vt 150 96
f 19/21/3 20/22/3 18/20/3

v 0 96 -90
vt 90 96
f 19/21/3 21/23/3 20/22/3

v 0 96 -60
vt 60 96
f 19/21/3 22/24/3 21/23/3

f 9/10/3 22/24/3 19/21/3

f 22/24/3 9/10/3 14/15/3

usemtl GLASS_CLEAR
f 15/17/3 22/24/3 14/15/3

f 22/24/3 15/17/3 21/23/3

usemtl OffWhite
f 15/17/3 16/18/3 21/23/3

f 20/22/3 21/23/3 16/18/3

usemtl GLASS_CLEAR
f 17/19/3 20/22/3 16/18/3

f 20/22/3 17/19/3 18/20/3

usemtl OffWhite
v 120 120 -240
vt -120 240
vn 0 -1 -0
f 23/25/4 9/1/4 19/3/4

v 120 120 -120
vt -120 120
f 9/1/4 23/25/4 24/26/4

vt -240 120
vn -1 0 -0
vt -120 0
f 23/27/5 2/28/5 24/26/5

v 120 0 -240
vt -240 0
f 2/28/5 23/27/5 25/29/5

vn 0 0 1
vt 120 0
f 23/2/6 3/1/6 25/30/6

f 3/1/6 23/2/6 19/10/6

vt 120 240
f 25/31/1 3/3/1 2/2/1

v 360 120 -120
vt 360 120
f 2/30/6 26/32/6 24/2/6

v 360 0 -120
f 26/32/6 2/30/6 27/4/6

f 2/2/1 4/4/1 27/32/1

f 4/1/5 26/26/5 27/28/5

v 360 120 -0
f 26/26/5 4/1/5 28/10/5

v 270 48 -0
vt -270 48
vt -360 120
f 29/33/2 28/34/2 4/6/2

v 270 96 -0
vt -270 96
f 28/34/2 29/33/2 30/35/2

usemtl GLASS_CLEAR
v 240 96 -0
vt -240 96
f 29/33/2 31/36/2 30/35/2

v 240 48 -0
vt -240 48
f 31/36/2 29/33/2 32/37/2

usemtl OffWhite
f 29/33/2 4/6/2 32/37/2

f 32/37/2 4/6/2 6/7/2

f 8/9/2 32/37/2 6/7/2

f 32/37/2 8/9/2 31/36/2

f 8/9/2 9/10/2 31/36/2

f 31/36/2 9/10/2 30/35/2

f 28/34/2 30/35/2 9/10/2

f 9/1/4 24/26/4 28/6/4

f 28/6/4 24/26/4 26/34/4

g Mesh2 Model

usemtl INVISIBLE_SENSOR1
v 336 42 -24
vt 336 24
v 24 42 -96
vt 24 96
v 24 42 -24
vt 24 24
f 33/38/1 34/39/1 35/40/1

v 108 42 -96
vt 108 96
f 34/39/1 33/38/1 36/41/1

v 336 42 -96
vt 336 96
f 36/41/1 33/38/1 37/42/1

g Mesh3 Model

usemtl INVISIBLE_SENSOR2
v 96 42 -132
vt 96 132
v 24 42 -216
vt 24 216
v 24 42 -132
vt 24 132
f 38/43/1 39/44/1 40/45/1

v 96 42 -216
vt 96 216
f 39/44/1 38/43/1 41/46/1

