# Alias OBJ Model File
# Exported from SketchUp, (c) 2000-2006 Google, Inc.
# File units = inches

mtllib non_manifold.mtl

g Mesh1 Model

usemtl FrontColor
v 62.4387 0 0.144565
vt -62.4387 -0.144565
vn 0 -1 -0
v 30.311 0 38.939
vt -30.311 -38.939
v 30.311 0 0.144565
vt -30.311 -0.144565
f 1/1/1 2/2/1 3/3/1

v 134.499 0 38.939
vt -134.499 -38.939
f 2/2/1 1/1/1 4/4/1

v 82.4048 0 0.144565
vt -82.4048 -0.144565
f 4/4/1 1/1/1 5/5/1

v 134.499 0 -56.561
vt -134.499 56.561
f 1/1/1 6/6/1 5/5/1

f 3/3/1 6/6/1 1/1/1

v 30.311 0 -56.561
vt -30.311 56.561
f 6/6/1 3/3/1 7/7/1

v 30.311 48.6693 0.144565
vt -30.311 48.6693
vn 0 0 -1
vt -62.4387 0
vt -30.311 0
f 8/8/2 1/9/2 3/10/2

vt -82.4048 0
f 1/9/2 8/8/2 5/11/2

v 105.018 0 0.144565
vt -105.018 0
f 5/11/2 8/8/2 9/12/2

v 125.704 0 0.144565
vt -125.704 0
f 9/12/2 8/8/2 10/13/2

v 134.499 0 0.144565
vt -134.499 0
f 10/13/2 8/8/2 11/14/2

v 134.499 48.6693 0.144565
vt -134.499 48.6693
f 11/14/2 8/8/2 12/15/2

vt -125.704 -0.144565
vt -134.499 -0.144565
f 4/4/1 10/16/1 11/17/1

vt -105.018 -0.144565
f 4/4/1 9/18/1 10/16/1

f 4/4/1 5/5/1 9/18/1

f 5/5/1 6/6/1 9/18/1

f 9/18/1 6/6/1 10/16/1

f 10/16/1 6/6/1 11/17/1

vt 105.018 0
vn 0 0 1
vt 134.499 0
vt 125.704 0
f 9/19/3 11/20/3 10/21/3

v 156.869 0 0.144565
vt 156.869 0
f 9/19/3 13/22/3 11/20/3

v 159.393 0 0.144565
vt 159.393 0
f 9/19/3 14/23/3 13/22/3

v 110.444 -27 0.144565
vt 110.444 -27
f 15/24/3 14/23/3 9/19/3

v 159.393 -27 0.144565
vt 159.393 -27
f 14/23/3 15/24/3 16/25/3

vt 134.499 -0.118656
vn 1.778e-17 0.820781 0.571243
v 154.3 -13.5 19.5418
vt 154.3 -23.7513
vt 156.869 -0.118656
f 11/26/4 17/27/4 13/28/4

vt 125.704 -0.118656
f 10/29/4 17/27/4 11/26/4

v 122.471 -13.5 19.5418
vt 122.471 -23.7513
f 17/27/4 10/29/4 18/30/4

vt -122.471 -23.7513
vn 3.4949e-18 -0.820781 -0.571243
vt -105.018 -0.118656
vt -125.704 -0.118656
f 18/31/5 9/32/5 10/33/5

vt -82.4048 -0.118656
f 18/31/5 5/34/5 9/32/5

v 65.4086 -13.5 19.5418
vt -65.4086 -23.7513
f 19/35/5 5/34/5 18/31/5

vt -62.4387 -0.118656
f 5/34/5 19/35/5 1/36/5

f 5/11/2 3/10/2 1/9/2

v 82.4048 -44.75 0.144565
vt -82.4048 -44.75
f 3/10/2 5/11/2 20/37/2

v 0.154774 1.66091 0.144565
vt -0.154774 1.66091
f 20/37/2 21/38/2 3/10/2

v 0.154774 -44.75 0.144565
vt -0.154774 -44.75
f 21/38/2 20/37/2 22/39/2

