P1
204 204
000000000000000000000000000000000000000000000000000000000000000000000000000000000000000000000000000000000000000000000000000000000000000000000000000000000000000000000000000000000000000000000000000000000000
011100011110000001111000000110001000111111111000100011110000011000111111110001111111111111111111000000011000011000111110000000011111110000000001000100000111111111110001111111111100000001111111100011000110
011000000000110100000000000110111000000001111010101111110000011000011111110000000111111111110000000100000000000000110000000100011111000000010101011000100111110001110111111100000000001101110001101111010110
000000011010000101100010010111111010001000001000000000110101011010000000000100110111111111000110100001001010100010110000100001011111010100010000000000110001110111100000111101101101000000000101110000010110
001001000010110001100000000000100000000000111000100000000100000000000000110000000000000110000010000101000000000010100010000000011111110101000010000010000001111111100010100001111000010000000101100001000110
011000000000110110001100001011101000001001111011000010010000001011001000000000000110110000101011011100001000011000101010001001111000110000000001001000001100000111101100001100000001000100100001000101101110
011011001001111110111111111111111011000000011000001000000000101000010000100000100100000010100000001100000000011010111000100000000010111000010100001001100001010100000001100000110100000100000100000000000110
010000000000000001000111000000001111100001000000011000101000000001000100010011000000001100000110100011101100000000110000010000011010100000001000001000100000010101101000000010110000100000000100010000000010
010000100001101101010001010110101100000000000010001011100000010101011111000000000000000000000001101111000001001011110110010001000010101000100010100000100001000100000100010000110010000111010000100001000000
000100001011100001100001100010100000000010000000101000001000110000010001001000010001000011010000001111000000000010000110000100000000101000000111100000001000000000000000100010000000010100010000000000000000
001000000011100000101001101110100010100010101010001110100100000100000000010010000000010000000000001111010100110000100011000100000011100000000111101001100011001000100100001100101100010101000111101000001000
000010011111001010000000001000100000001000000000100000000000010000100100010000010000010000100100101000000000000000101011000100001000000001110000100000000000010000000000101101001101000101011111100000001100
011000111111001000100000111000000100111111110000001001000101111110100011000000000010010100101000000010000000001100000001000101000001001011000010000000100000000000100010001100000100011100011100001001101000
011000110000000000000100011010101000010001110101000000011111110000000000011000100000000000000001001000110010100000000000010000001000001010000000001000000000000100001000010000000000011101111101000000000000
011011110010111100000100000000000000000111000001001000111110000100000100000000100010001000100100101010000000000010000010000000010010000000110101000000100010000010100010010110100010001000011100101000001000
011110000000110000000000000000001100100100001101000010111110101100100100100100001000100000000001000000000101010000000000000000000010101000000000001100000000001000000100010000000000111001000010001000000000
011000110011000010010011001000100000010000000000110100000000001100100000000000000100001000001000100101000000011000010000110000100010000001110010000000010101000001000001110110100010001000001110000011110110
011010000001000000010001000001000011000010000011000000110011000000000011001000100001001010000100001001001011011001000010000110100000001000011000011001000000010001011000111110101001101110000000010000010000
011111110100001011110000000000000000000000001011011100000000010111101100001000000000000000100000000000011000011010001000000010000000000001100011011000001001100001000010111110100100000000100100000001100000
011000110101000011110010011000010010001010110011000000001010011111111100100001000010001010000010000000100000001010100000001010100101010000001000000011101011101100011010001110000100010000000000010011001000
000010010001110001000000000010000100100000000100010010000000111111000000000001100100001001100000010000001000100000100001000000100000000100001000001011000000100001000000000100000000000100001000000000000100
001010000110000111001000000000000000010010010100010001001101110001010110101000000001100001000000010000000101001110100101000000001011010100100010001011011010001001000000010001111010001000101000001000000000
011000100100100000010000001000001001010000000100000100000001000111000110000010000000000000001011000001001000000000000000000001000000000000000100000001000010111000000101000111111000000010000000000000010000
000000110101001011000011011010000000000000100010001111110001000111011000001000100010100000001000000000000000010000011101010100011110000010110000000001110010110000100001111100011111011000000101011010000100
001000000000011000000000011010110100000010000000101000000100010000010001000000000000001001000000111000000001000100000111010111100000000000000110001101111000000000000000000001000010000001100000000000000000
011000100000000010110000111000000110100000001101001011011101000011000000000000000011101000010000000010100001001100100000000011100100001000101111100000011110001000010001101001000000100011110110010000000000
011000000000000100000010010000100000000001000000011111100000101000001000000001101111100101010010001000000100010001000001101100000000000000000100010011011110000010000110001000000010101000110000000010010100
000001000000000000010010000100101010110000010101000001000010001010100000101110000000000001100010000000010001000100000101100000000000010000011000000000000000010110110110100000100010111010001010000000010000
001001001001000000000000000000000010000000000000011100000000100000000000000000110010110001000000010010000100000000000000001000100010000101000010001000000000000000000000000000000000000000100000010001000100
011000000000100100101011000110001000100000001010000000101000000000100010100100000010000010011000000000000010000000100101101000100010010101000010001001000100000010100100100100100001001000100100010001001100
000000000000000010000000010000010010000000000000001000000001000100000000010001100000001000000010000100000000000000000000000100100000000000000000000000000000010000000000000000100100000110000010000000000000
000000000000000100010001010010000010000100101001000000000001000100010101000101001010010000010000100010011000001001100100000000010000000000010010000100110010000100000000100100000010010100110000001001000110
000110111001000100000000010000111000100100000000000100000000000101010000000100000000000001010001000000000100100001000101010110010100000000000000010000000100010001001000010000010000010110000001000010000110
000000000000000000000100000100000000000000000000000000000000000001000101000001010101101100000000010000100001000000000000000000000000110010000001000000100000000000000001000010000001000000001000011000000110
010001000000010000000100010001010011000001001000010001101011101000000000010000000100000000101000100000001000010100001100000000000100100010001001010010000000000101010000000000001001001000000101011000110010
011000010100000000100000000001000000000000000100000000000000000000000100000000000000000000001000000101000000100000000000100000000000100000000000000000001000100000000011000000000000000010000000000010000000
011000000010001001001000101001000000100110010000011011000100010001100000001010000000110110100010011000001000001000000010001100100010001001010001000011001010000001001000001000000000010100100001001000100100
011000101000000000000010001000001000000000010011111000010100001001100010001001100010000000000010000000100001001001010000100001000010001000000000000000000000001000100000100000100010010000100000001000100000
011000000000000100100000000000000000010000000000000000010001000000001000000000000000001010100000010100000001000001010010010000000000000000100000001000001010000001001000001000000000010000000000100000001100
011110101100100000000000100000010001001000001001100100011001000010100101000000001000001010101001010100010000010000000000000000100000010000101001100001100000000000010001000001010000000010000000000100000000
011110000000000000010000000000000001100001000000000000000000000000010010000000000001100000001001000000000000000101011000000000000100000000000001000100000000000100000000010010000000000000100000000000100010
011100000000010011010010100100010000000100010010001001000100010001010000000010000000000000000000000100001000100100000010100010100000001001000010000010110001011000010100000000000000000110000010010000000000
011101010001000000000000010001000100010010000000001010000000001100000000001000010000000000010110100000000100100001101100000000010001000000101000000000000100010011000000100000100010000000000010001000001000
011101000000001000001010100001000000000001100010000000010000000000000010000001110010000010000000000001000010000000001000100100000000000000000000001110000011000010000100000000001000010001000001000000010000
011100000010100000001010000000100000100000001010010000010000000000001000001000000000000000001001000010010000001010101011001001010010001100001001100000110000101000000010010000100000000100000100010000000000
011110001001000000100000000100000010010100000000000001000011000000000000000100100000001010000000000000000101000010000000000001000000000001100000000000000100000010000000000010111000000000000001110100000100
011100100000000100010010000001001000000100010100001000010000000100001001100101000010011001100010000000010000000011011000000000000001010000000100100100000101010010100100011000000001000110100100000001000000
011100000101000000000001000101100100000000010001000000000000000100000000000000000010000000000010000100001000001110000000000001101010100000100100000101100000010000000100011111000000000000010100000010001010
011100010000000000000000000000000001000000000000010010001100110000000100010000000000000000000000010000000001000110101001001001100000000100000000100000001010000000010001011111001000011000000000101000000010
010000010000000010101100010001000001000001011010000100000000000000010001110010100100000010000110110110100000010000110000000100001000100100001010000101001001011001010000011111000101000010001000100000100110
010001000011001000000001000000001000000000000001000000110100000010000110000010100000010000110000110000001000010011110100000000101001000100000000100000000001000000100010001000000000001000100100000000001110
010000000000000000100000001000001001000011001100001000111100100010011110100000100000100100011011111101000101000000010001100010100000010010000100001001000000010000001010100011010100010000100000000000000000
011000010011011000101010011000010101001000000001100010001000000000000000010000100100000001111111111101010000010101110001110010100011111000011101001000000100010110001000101000001001010100001000000000000000
000010000000000011111000000010000000000001100011110000100010010010100000100010100000001000000000000000000000000000000100000000011110000111110000000000000000000000000010001101000000010001111010010100100100
001010011000000111111001000000000010010011000011000100010000010000011000000000010010010010010001001100110100010000010010110001110000010011110110101001010001000100101001000000011101110000000001000100000000
010001000010010000000000010100000010000000010001010000000010000111000011000001000000100000000000000000000000000010100000000001110100010000010000100000000000000000001100000010111000000110000000100000001110
010100001000000000000101000001011000100010100101010010011010100011000111011010010000000010101010010000010100000000101101101001111101000101000110000001010000110010111110110010000000010001010000001010001110
011101000000100010000000000000000010110000000001000000001000001000011111111000010110111010000000010000000000010111000111100001111101001100000110110100110100000000000100010000110100100010000001100000001110
011110010110100001001100100101010010000000000000000001001101101001011100001000100110000011000001000001001110000001011000110111110000000010000000000010111100011011010101110000000000001000001001101001001110
011110110000000000000000010000001000000011000011001100001111100000001100100010000110000110011000001100000000100101110000000000100001000000100011011000111101110001000011000000010010110000000101100001000000
010000000101001000111000000110100100101000001100000000101100001100101100010010010000010000000011000001010011000001110100011010000101010000000110001111111111000110001000010000010000000100110000000000100110
010111100001001010011010000001110000000000000000000000001101011100000100010000100110000001000111011100001011010011100010000000110000000011110000111111111000010000100001000000000000101101000010100100000110
011110001000000000011000100100010000000010100001000000011100001101011101010110000100010000011000000001000001000011101000000110010101101100000101111111111010000110000100101001001001001100011000100000001110
010000100000101100011000000001000100100000100100001000000000100000111100000000110000000010111011111100100101101011000110010000000000000101101001000000010000010000001000000000011000001111111010000010111110
010101000100001100010010100001011100000000000001101001101100101000100001100111110000011000111111110000000101000000011111000000010000011111100000010101110100000001100001110001010000111111111010010110000110
011100011000000101110100100001111100001100000011000010000000000010000100001000110110000000001111110111000001010001100011000010000010010001111010001000110010101000000100010100010000100011111000110000011110
011101100011011110000000000100001000100000001000011110100001111001100000111000000000011010101000111111011111000001101111011000001010100101100010110000000000000000100101000000000010001100000011110001111110
011111101111111000100110110000100000000000000010000000001000011001000111000010100010000001001011111110001111000111111000111000110000001000101000000010011110111011100001001110111000001101101111110111111110
011111111111111000000000000000100000000000000000010000000000000000000111011000000010010100011111110000111111011111111011111010000100100011100000100000001100011110001100011110001100001111111111000001111110
010001000111111000101010000100000000001000010010000100010000000000000001111111010000111100011111110100011111111111111111000000001000011100000000000001100001100010111111111110100001001111000111010111111110
010100011111111010000000001000010000000000000001000000000000000000010101111111010111000001000010000000000011111111110001011001000001000000000001000100000000001110001110001111101100000000011111111100001110
011101111111111000000000000000000000000000000000000010000100000000010001111111000001011010001010110101001000111111110111100000000001011000000000000100101000001110111110111100011111011010000000011100100110
011111111111111101000000100001000011000001000100000000000000000100000011110001001001111000000001100000001011000001111111101000110110000001000000000000100000000100011111100001111111110001000001111100000110
011111111111000110000100000000000000000000000010000000000000000001001000000111100000110000100111101110001111010101111110001010001000110010000000000000000000010000011100001110001111110100001011100010100110
011111111110000000100100000000000000000000000000000100001001010000000001000010001100000110000011101000111000010001111110111110111011110100010010101000000000000010001101100010100011100001001011101110010110
011110000000100100000000000000000100000000010000000000000000000000001001001010100000100110100000000010001010000101000111100011111000000100000000001000000010000100101111101000101110001111010000011111000000
011110101010001101000000000010010000100000000000000000000001000000000000000010010101010111100101100000101010110100011110001000111010110001000000000000000001000000101111100110001110100011000101111110001100
010001100000000001010000010000000000000000000000000000000011100100000000001111010100000000000000000100000000010001111110001011111111100000000100000000000000001000001111110000111000001011011111111110100000
010111100100100101110000000000000000000000000000100000110000000000100100100111000000000011010000001100001001010100111110101100011100001000010000000000100000000000001111110000111011010011111000000000001010
011000100000101001110000000001000000001000000000000100000100000000000000010111111010111111000101000101011000010010111110000101111101100010000000000100000000000010111111111011110001000111111010000011100010
011011110110000011000000000001001000000001000000000000000001000000000011000001111111111111010001010001000011001000110000000000000011111000000000100000000000000111100011100010000100111000011010011000000110
011000110000101000001000000000000000000010001000000000000000000000011111100001111111111111100001110100010000001111110101100010101000000000000100000000100000000001101110001110110010111000011001000000110110
011010000010000001000101000000000110011000001000000000101000000001111000000000111111111111101100000000110100001111110100000001000010010000000000011110000000000000110000111100000000111001011100000010000010
011000110000000001000000000001000110000001100000010010000010000111111011010010000111100011000001010010000000111111000001101000000010100101000001000000000000000010110100010001011111111000000000011000011010
011010000010001100000000000010000000100000000001000000000000001111000100010000011111101001010101000010100100001111010000000100001110000001001000000000000000010100111100010110001111111010101101000111000010
011000000100000101001001000000010000100000100101000001001000100001011101000010000001100100001100011000000000100000000100100000100000010000000000000001000000010001000101000000100011000010000000011111000110
011100110000000100000010010000000010000010001000000000000000000110001110001010110111100000111101000001000000000001000000000100000010000001000000100100000010000000011100100100001111010000101101100010000110
011110000110100000000010000001100000000000000000110000000000000010100000000011111111001011000100000111010010100000000000000000000010000011000000001000000010000101111110000001001111010000000000101000000000
011111010110000100100000100001000000000001100000000000000000001110010010100000111111000010000001011111000000000000000010010001000000000000001010000000000000100011111000000000001110000010110000000000000000
011000000111101000000100100000000000000100001000000000000011111110100000000000110001001010100000000011100100000000000000001000001000010000000000100010000100000011111000001000001100000100000000001001001000
011011010100000010000110001000001000100000000000100100001011111110000000100100110111100000000010101000100000100000000100000001001000000000000000001000000001101011000010000011000101000000100100000000000000
011111000001001000000000000000000001000000101100000000000011111111001000000001100011111011001000000011110100001100000001001000100000100100000010100100001000000011010000100011011100001010101000001000001010
010000001010000010100010000000100000001000100010100100001111111110000011001011001010000000000000010010001110000000000000000010100000010100001010010000000000101100000001001110000000000000000010101001000000
010000100000010110000100010000100100000000001000000000100111110000111100000011010000101011010000000010100000000001000000000000000000000000000001110000000000000001001000000110110101010000000110000000100100
010100000100000100110000000000000000010001000010100000010100010100000001101011000100100000001001010110010000000000000010000000001010010000000000001010000000010101000010010000110100000110000000010000000000
010000100000010000000000010100000010000000001000000001000001000101011011101010000000000010000000000111000101010010000000000001000000000000010000000000000010011000000010100010000001000000000100000000001000
011010000001000010000011000000000100010000000000000000001100100001000000000010100101010000000001111111010000000001000001100000000010000000001011001000001000011010101110001001000000000000000000000000000010
010000110000000000101000010100000100000001000000000001100110100000000010110000000000000100101000000111010001010000010000000000010000000010100000001100001001011111111111100000000000001000000001000010100010
010100000101010000001010010001001100100001000000000000000000101011110000110100100001000010001000010010000000000000000100000000000100000000011010000000000000011100011000100000101000000000001010001001000010
010000110000011001000010001000000000001000001000000010101010001011111111110100000000000000001001001010110100000000000001000001000000000000000000000000111100011000000011100000000000001000000000000000000010
010000100000001100000000101100000000000001000000000000000011010000011111000000010100000100000000000010000001010000000001000000001000000000001000000000111111111001011110000000000000000000000000101100010010
000010000000000000000001000001000000100001000001000010100011000001100011011101000000010000010001000001100010000001000000000000000000000010000000100000111111100000000000000011010000000010000000000000001010
001000000100000000000000001000000000100000000100000000010001110111101000000100001000000001010000000001111001001001000010100000001100001000010000000000111111101110100000100000000110000000000000100000100010
011010010000000010000000100010001000100000100000000001000001111111111010010000101100000000000000001000111100000000000000000000100000000100000100000010100011100010010010001000110000000000010000000000011110
011000100011000000100000110000000000001000001000000000100101111000001011000000001000000101100001100000011110010100000000000000000100000000010000000010100011000011000000001011110100010100000000000000000000
011000000000000000010000111001000010001000100100000000100000000010101000001101000010000100000101001010000000000000000000010000001000001000000000001000001011010000001000000000001101000000000000000000001100
011010000101000000000010000000000000000000000000000010001100110000101111100000000010000000000000000010000100101011000000000000000000010000100100100001101011000100100010000010111100010000000010000000000000
011001000000000010001000100010000000100001001010100000100000000010000000000001000000010010000000010100000000000011000000000000000000000000001000000001100011111000000000001000100000001010000000000000100110
011000001000000000000001101000000001000010000000000001110001001010101100001101000000000000000001000000010000011000100000100000000000000010010000000000100001111011001001100001101101000000000000000000001110
011000000100000000000000000000000000000000001100000000000101000000000001100000000000000000000000100000000000000011100000010000000000100010000001011011100100111110000000000001100000100000100000100000000010
011000101000000101100001100100000000010000000000000010000100011100100100000000100000000000000000000000000010000111100000000000001000100000000001000000010010000110110010110001101010000100000000100000101110
011010000000000000000111101000100001000000000000010010010000111100000000011100000000000000100000000011000010010011100000000000100000001001000000010001110000000110000000110000111000000000000000000000111110
010000010100000100000111100000000000001100101010000000000011111000001011100000000000100000010000000111001000001000110000000000001000100010000011000100000100100111100000000000011100010010110000100000011110
010110100000000010000000010100010000000000001000100000111110000000000000001000010000001100000000011000000001100011110000000000000010000000000000000000101001000110001100000000001111000000000010000001111110
010000001000000000000001100000000000000000000000000010111110000000100100000000000100000000011000001010000000001111110000001000010100000000000010100100000000001000100100001000000000000000000000000001111110
010000000000000000000001000000000000000000100001000000000010000000000000100000100001000000000000000000000001001111111100000000010000000010000000000001000000000000010100000010000010000100000000000000111110
010101010000010000000001010000000000001001000000000010101100000000100000100000000000000010100000000100100001001111100000010000000000000000000001001010000000001000000000000000000000100000000000000000011110
010000000000000100000101000000010000100000000000000011111100010000000110000000010100000000000011000010001000011111101000000010010000000001000000000000010010100001001011000001000000001111000000000000001110
011000001001000000000001111001100000010000001000000011110001000000000000000000010000000011000000000000000000011111111000000001010000000010000000001000000000000000001000000000000001101111000000100000001110
011010000000000001000111111000000000000001001000000011110000001010000100000001000011000000000000100011000101011111111000010000000000000000000001000000000000100000011111111000000000000011100000000000000110
011000000001001001001111111000000000000001000000000111110110001000000100000001000111100010000000100011000000001111111100000101000001110000000001010000011000000000011111111000100001001111110000000000000110
011110000010000000001111111001000000100000001000000111110010000000000001000010001111110000100000000001100101000011111100000100000001000001000000000001011000100001111111111100000000011111111100000010000010
011110001100000010001111111100000000001001000100000111111000010011000000000000011111110001000000100001110001010011111000000001000011011000100000010000011001000001111111111100001000011111111110000001000010
011100000100000010001111111100000001010000000000000001111110000000001000100010011111111000000000000001110000000001111000010010100011111000000001010001111000000011111111111100001000001111111111000000000000
011100000000100000000111111100000000000000000000000111111111100010101000000000011111111000010100000001111100010001111000000000000011111000000000000000000000110011111111111101000000001111111111000000000000
011100000001100010000001111100000000100001100000000111111111100000000001001010000111111100000000000001111110001001111000001000000001111000000001000001011000000011111111111111100010001111111111100001100000
011100100001110011100001111110000000000001000000000111111111000011001000000000011111111110000100000111111110001011111000001000000001111100010000001000010000110011111111111111100000001111111111100000000000
010000100001110000000001111110000000010001010000000100011100001000001010001010011111111100010100001111111100000011111000000000000001111100100000000001010010000011111111111111100000001111111111110000010000
010000000011110000100001111110000000000000000000000101111100000000011010000000011111111100000100011111111101010011110000000011000001111100000000100000000000000111111111111111000010001111111111100001110000
010000000111000000000011111110000000000100000000000111111100001000111000000000011111111100000000011111111100000111110100000000000000111100000000001100001010000111111111111111000010001111000111000000000000
010000000111010001000011111111010000000110010000001111111100000001111000011000111111111100010000011000111101000111111100000000011000111100011001111100000000001111111111111111000000011111011111000000100000
010000100111100010000111111111000000000000000000000000001100011001100000010001111111111100001000000011111100000111111100000010000000111100000000111100000100011111111111111111000100011111111111000010000010
010000000010000000000111111111000000000000110000000110111100000001101001000011111111111100000000001100011000110111111100000010010000111100100000111100000000011111111111111000000100011111111111000000000010
010000000000000000000111111111000000001000000000001111111100101001100001000011111111111100000000001101111000000001111000000000100000111100001000111000011001111111111111111011001000111111111111000010000110
011000010000000110001111111111100000000000000000001111111100010001100001000011111111111100000100000000111000000101110000000000100000011100100000111000011001111111111111111111000100110001111111000100000110
011100010000000100001111111111100000000011000000011000111100000001100000000110001111111110000000000110111100010001100000100010100000011000001000111000000001111111111111110001000000000111111111000000000110
011100010000001000011111111111000000010000000000011011111100000001100001110010111111111110000000000000111100000101100001000010000000010000000001111000110001111111111111110111000000001111111111000100000010
011110000000000000011111111111000000010000000000011111111100100001111000000001000111111110000110001011111110000101100000000000000001100001010001111000000011111111111111111111000100001111111111000100000010
011100000000000000111111111111000000000011000000011111111100000001111000100001011111111110000000000011111111010101100000000000000001100000000011000001000011111111111111111111000010000111111111000000000010
011100000011100011111111111110000000000011000000111111111100101000011100100000111111111110000000001111111111000001100000011000000001000001000011011000010001111111111111111000100000000111111111000100100010
011000000000000011111111111110000000000000000000111111111101000001111100000000111111111110000100001111111110001001100000000011000000001000000111111000000001111111111111100010000000100011111110000100000010
011000011000000100011111111100000000001000000000111111111000000000000110000000001111111110000000011100011110000001100000010000000000000000000111111000100001111111111111101110111000000011111100000001100010
010000000000011101111111111100000010001000000000111100011000010011011111001000101111111110000000010001111110010101100000001000000000000010000111111000000001111111111111111000011000100001111100000000000010
010000100000011111111111111100000000100000000001111101110000010001011111000000000001111110010000000111100010000101100000000000000000001000000111100000001001111111111111111011000000100001111100010100000110
010000000011011111111111111000000000000100000001111100010000000000011110001100010111111100001000000111101110000000100000000101100000000001100011101100011001111111111111111000101100000001111000100000000110
010010000000011111110001111000000010010100000001111101110010000111111110000000111111111100001000010111000110000000100000000010000000000011100011111100000001111111111111111110001000000001111000001000000110
010000010000011111110100110000000000000000000001111111110000100111111100001001111111111000000000000111011110010100110000001000000000100000000000011100010001111111111111111111111000010011111000000000001110
000001000000011111110010110000000000000000010001111110000000000111111100000001100001110000000000111111111110100001110000000000000000000010100001011000000011111111111111111110000000000011111000100100001110
000000000001111111111000010000000000100000000001111110110001100111111000011001101101100001010000110001111110000101100000000001100000100010000000011000100011111111111111111110010000000011111000000010000110
000010000001111111111101110000000000000000000001111111111000000111110000010001100000100000000001110100111111000000100000001100000000110000100000010000000011111111111111111110000000000001110000000010000110
000000100001111110000011100000000011000100000001111111111001000111110101100001111011000000000011110010111111010000100000000000000000110000001000000000000011111111111111111111000000000001110000001000000010
000001000000001110101011100000000000000000000011111111110011100111110000000001111111000010000011111000001111000000100000000000000000110000010000000001000011111111111111111111100001000001110000001000001010
000100001000001110001011000000010000000000000011111111110000000111111100010000100011000100000001111010111111110100100000000000000000111000000100001000000011111111111111111111100001000111110000000010001010
000100001000101000100011000000110001010010000001111111110010000111110000000000001111000001000001100011111111110000100000110100000000111100000000000001000011111111111111111111000000000111100011000110000010
000001011000001010001110000000000000000000100001111111110000100110000110000000000000100000000001101000111111100100000000010001000000011000000000000010000001111111111111111111000010001111100001100101000110
000101000000011000111110000000100101100000000001111111110010000000100010000100000000100001010000000000111111101001000000000010000000011000000100000010000111111111111111111111000000011111000100100100000010
000000000000011011111100000000000000000000100001111111110001010000000001100000100000110000010000110100111111100000000000000000000000010000100000000000000111111111111111000111000100001111000100001000000010
000000010100001100011100000000010000001000000001111111111000000000000100100000000000010000000100110001111111101011000100000000001000010000001000000001000011111111111111011111000010001100001000100000100010
000000000100000001011100000011000000000010000000111000011000010000000000111000001000010001001000000111111111101000000000000000000000000000001000000000000011111111111111111111000000000000000000000010100000
000000100001000000011100000000000101010000100000011011011100000100001000111110001010000001000000010111111111100000000000010000001000000010001000000001000000011111111111111100000000000000000010000000000000
000000000001000000000100000000000000000010100000001000011111100000001111111111000000000000000000000111111111100100000000000110100000000010000000000100100001011111111111110000000110000101000000001000010000
000000101000000000011000000001000001000010000000000011111111000010000111111110001001000000000000000000111111100000000001000000100000000000001000000100001010011111111111110000010010001001000000000001010100
000100001000001000000000000000000100001000100000000000110001000010100100011110000000000000000000000000111111000000010101100000000100000000000000000001000000100001111111100011000000000000001000000000000000
000000100010000000101000000000000001000010100010100000000111000000000101111000000000000000011000000000111110000010000000000000000000000001110000110001000011101101111111100000000000000000000000000000000110
001000000010010100000001001000010000100000010000000010000000010000000111000010010000000000000000000010111000000000000010000000001000000001000001110100001011100001100000001000000001010101000000000010010110
000000000100010000111100000000110000000000000011010000000000000001100111011010000000000000000110000000000000000000001000000000000000001000000001000000000011110000000000000001100100100010000000001000100110
010100000001000000000011000000000100000100000000000000000000000000001111111000100000000000000000000000100001001100000000000000000001000000000100011001100010000101100100100000000010001000100100000000001110
010000000001011101101000000000100000000010010001001100100000000000001111111100000000110000100000011010000000000000000000010101000000000110000000000011101000000000000001001000000000100000001000000111000010
000000100100000001000010000000000000010000010000001100000000001000000000011101001100100000000000000010010011000101001000000000000000100000000001001111110000001000010100000011001000001000100011111111010000
000100000010110110001100010000100000000001000001000001000010100000001001111101000000000010000100101000000000000000000000000000010100000000000000000100000101000001000001111100010010000100000011100011000100
000000101000111100000001000010100001000110010010000000010000010000000000000100010000100000010000000000010011000001010100110000000100000000000010010100100000101111010110000001001010100000110001101010001000
010001000001111101000101001000000000000100000000100010001000110010000000011100000000001000000000010000000000001000000000000000001110000000010100000000001000000010001110110100000010001000001101101010100010
000000010110001101100000010000000000000000000000000000100000000000000000011111101010000010000000000000000000001000000000000011110000000001000000101010000010101100100000000010101110000000000001100010100010
001011111110111101001111110100101000000000100100100000000000000001000000000001100000101000000100000000000001000000001000010000110000101000010000001010011011111100010011101000001111010101000111000100001110
011111111000110000010001100000100000000000000010000000001010110000000000000001110000001100100000001000000000000001010000000000000000100000000100111000010011111100000111111011111100000000011111011101111110
011111111011110111110111100000100000000000000000001100100000000110000010000000111001000000000010000001000000000000000100001000001100000100100001100011000100011111000111100011111101101101111100011110001110
011111000111111111110000000100000001000000000000000000000100000000100000000100000000100000000010000000001100010000100001101000000000100000010000101001100001100011011111101111111100000000011101111110111110
011111011111111111000000010000000000100000000000000000001100101000100010000000000000000010000000010001000001000000000000000010001000000100000011100101100001101111100011111000111111101101111111111000111110
011111111111000111010010010000000000000011000001000000000000001000000000000000000010000010001010000001000001000000000100000100100000100001101110001001100100000000001000001011111111111111100011000010000110
011111111111011111000000010110100001001000000000000001000010000000001000000000000000100000000000010000000100000011000000010000100000001000000110000011110000010011010000001111111111111111101111011110110110
011111111100000011000001111000001000000010000000000000000100000000000000001000000000000100101000010000000001010010000000000010100000000001010000101111111110000000000010000000001111111111100011110000000110
011111111001001111001000011010010000001010100000000000000000101001100010000000010000000000000000001100001100011010101000000000000110100010010010001111111111000000111000010110111111111111101000110111111110
011000110000000111100001000000100011100010100110001000100000000000001000000000000000000000101001100100000100001000101001010100000000000000000000000111100000000011110001000111111111111111111011000111100010
011011000101011111100001011010001011110000100000100000010000000000000001100001000110000000000000000000000000100000000000011010001010010000000000010011000100101011000111111000110001111111100011011111101110
011110001000011111000100000010000011110110000000001000000010010010001000000000000000000000101000000000100000000000001000010000000000000000000100000000010001100011010001111011110111111111101111111111000110
011110100011000111010000101000100100011111001101000000000001110000001000001001000000000000000000000100100110000010000110000000000100101001100000010110000000000010000001111111100011110001110001000111011110
011110001111011111000011101010001101010000010000001000100000000010000000000010000010010010000000000000000000110000000000111000000001100000000100000010000010010000110101111000001000110100000111010001111110
010000001111110000011111100001000101010010000000000000000000000000010010000000010000010001000000101000000001000001000010000000100000001111110001010010011010100100000001111011010011110100001111110100000000
010100101111000001111100000000011000010000100010100000001100000010000000001000011011000011011100000000001000000000000000000000100101100011110100000000000010001101011111111111000111000000101000000100000100
011100000110000001111101101101111011110110010010100001100000010000010000001001000000000001110000000001001010100000000000000000000000001111110001101001000110000011100011111111111000010000001011010000010000
011100011110100101111111100000001100010000000000000000000010000000000100000010000000100100000000001000000000101000000010000000000001000111111100000000010000001001101111111111111011010011111111110000000110
011101110000000000000111101010100001000000000000000000000000000000011100100000001100000000100100011000000000001000000000101000000010000001111101111010001001000001110000011111111111010111111111111010001110
011111110111110011010100011100000011010010000010101000000000001010100000101000100000001101000100000000000000000000000000000010010000000000011100000000000000100001100101111111100011000111111111111110100010
011111100010000000010100010001101000111001010000101010000000000000000100001010000010000000000001000010000000000000000000000000100000000010000001001100100010000000001001111111101111110001111111111111101110
011111101110001100000001000101000010100000000110000010100000000000000000000001000010000111000010000100000000000000000001000110100100100100001000100001001111000100100001100011111100010001111111111111100010
011110001100101100000000001000010110101111000000101000100110101000000100000000001000110000000011010001000000100000001010000000000000000001000100001000010001010000000101101100001000000000000011111100001110
011110100000000100010011100000100000001100000000000000000000000000000000000000000000001000100000000000001101100000000000000000000100010100010100110000000110000110100100000001101010001001001111111100101110
000010001100010000000111110110001110111101101100110010101010000000000000000000000000000010000000001000000000000001000000000000000000000000000000110110110000000111100000100100000000000001010000000000001110
001100100001100010110000000001111000100000000000000000000000100000000000000000000000000000000000001100000000000110000001001011001001010000000000000110000110010000111101001111110101001100010100100100100010
011101010111101000110010110111111011000001101010111100101010000000010000000001000110000000000000000001011010100000000000000000000001100000000000000110100011000011000100011110000001011111100000000010001010
011100000000000010000100111111111111010011000111111000001010001011010011010000000000000000000010000000000100100000100101101110100101100010010100010001100001000000010101111110110001011111101010010100010010
011101110101110000110001111111111111000111011111111001000000000000000100000000000000000001111000000000000000000000000000001000000000000000000000000101100101011010100111111111110100011111101010001001000110
011111111111111111111111111111111111111111111111111000001000000000000000000000000000001111111000000000000000000000000000000000000000000000000000000001100001111110001111111111111111111111100000100011111110
000000000000000000000000000000000000000000000000000000000000000000000000000000000000000000000000000000000000000000000000000000000000000000000000000000000000000000000000000000000000000000000000000000000000
