<?xml version="1.0" encoding="UTF-8" standalone="no"?>
<svg
   xmlns:dc="http://purl.org/dc/elements/1.1/"
   xmlns:cc="http://creativecommons.org/ns#"
   xmlns:rdf="http://www.w3.org/1999/02/22-rdf-syntax-ns#"
   xmlns:svg="http://www.w3.org/2000/svg"
   xmlns="http://www.w3.org/2000/svg"
   xmlns:xlink="http://www.w3.org/1999/xlink"
   xmlns:sodipodi="http://sodipodi.sourceforge.net/DTD/sodipodi-0.dtd"
   xmlns:inkscape="http://www.inkscape.org/namespaces/inkscape"
   width="1500"
   height="1150"
   viewBox="0 0 1500 1150"
   id="svg2"
   version="1.1"
   inkscape:version="0.47 r22583"
   sodipodi:docname="AllLaserPersonalities_OneSpot.png">
  <metadata
     id="metadata112">
    <rdf:RDF>
      <cc:Work
         rdf:about="">
        <dc:format>image/svg+xml</dc:format>
        <dc:type
           rdf:resource="http://purl.org/dc/dcmitype/StillImage" />
        <dc:title></dc:title>
      </cc:Work>
    </rdf:RDF>
  </metadata>
  <sodipodi:namedview
     pagecolor="#ffffff"
     bordercolor="#666666"
     borderopacity="1"
     objecttolerance="10"
     gridtolerance="10"
     guidetolerance="10"
     inkscape:pageopacity="0"
     inkscape:pageshadow="2"
     inkscape:window-width="1909"
     inkscape:window-height="1171"
     id="namedview110"
     showgrid="false"
     inkscape:zoom="0.58044244"
     inkscape:cx="158.83612"
     inkscape:cy="595.42185"
     inkscape:window-x="0"
     inkscape:window-y="0"
     inkscape:window-maximized="1"
     inkscape:current-layer="svg2" />
  <desc
     id="desc4">Produced by GNUPLOT 4.2 patchlevel 6  </desc>
  <defs
     id="defs6">
    <inkscape:perspective
       sodipodi:type="inkscape:persp3d"
       inkscape:vp_x="0 : 575 : 1"
       inkscape:vp_y="0 : 1000 : 0"
       inkscape:vp_z="1500 : 575 : 1"
       inkscape:persp3d-origin="750 : 383.33333 : 1"
       id="perspective114" />
    <circle
       id="gpDot"
       r="0.5"
       stroke-width="0.5" />
    <path
       id="gpPt0"
       stroke-width="0.222"
       stroke="currentColor"
       d="M-1,0 h2 M0,-1 v2" />
    <path
       id="gpPt1"
       stroke-width="0.222"
       stroke="currentColor"
       d="M-1,-1 L1,1 M1,-1 L-1,1" />
    <path
       id="gpPt2"
       stroke-width="0.222"
       stroke="currentColor"
       d="M-1,0 L1,0 M0,-1 L0,1 M-1,-1 L1,1 M-1,1 L1,-1" />
    <rect
       id="gpPt3"
       stroke-width="0.222"
       stroke="currentColor"
       x="-1"
       y="-1"
       width="2"
       height="2" />
    <rect
       id="gpPt4"
       stroke-width="0.222"
       stroke="currentColor"
       fill="currentColor"
       x="-1"
       y="-1"
       width="2"
       height="2" />
    <circle
       id="gpPt5"
       stroke-width="0.222"
       stroke="currentColor"
       cx="0"
       cy="0"
       r="1" />
    <use
       xlink:href="#gpPt5"
       id="gpPt6"
       fill="currentColor"
       stroke="none" />
    <path
       id="gpPt7"
       stroke-width="0.222"
       stroke="currentColor"
       d="M0,-1.33 L-1.33,0.67 L1.33,0.67 z" />
    <use
       xlink:href="#gpPt7"
       id="gpPt8"
       fill="currentColor"
       stroke="none" />
    <use
       xlink:href="#gpPt7"
       id="gpPt9"
       stroke="currentColor"
       transform="rotate(180)" />
    <use
       xlink:href="#gpPt9"
       id="gpPt10"
       fill="currentColor"
       stroke="none" />
    <use
       xlink:href="#gpPt3"
       id="gpPt11"
       stroke="currentColor"
       transform="rotate(45)" />
    <use
       xlink:href="#gpPt11"
       id="gpPt12"
       fill="currentColor"
       stroke="none" />
  </defs>
  <g
     style="fill:none; color:white; stroke:currentColor; stroke-width:1.00; stroke-linecap:butt; stroke-linejoin:miter"
     id="g22" />
  <g
     style="color:#000000;fill:none;stroke:currentColor;stroke-width:1;stroke-linecap:butt;stroke-linejoin:miter"
     id="g24"
     transform="matrix(0.97135718,0,0,0.93362584,42.392299,6.246435)">
    <path
       d="m 37.3,1132 9,0 m 1432.9,0 -9,0"
       id="path26" />
    <g
       transform="translate(29,1136.5)"
       style="font-size:15px;text-anchor:end;fill:#000000;stroke:none;font-family:Arial"
       id="g28">
      <text
         id="text30" />
    </g>
    <path
       d="m 37.3,946.1 9,0 m 1432.9,0 -9,0"
       id="path32" />
    <g
       transform="translate(29,950.6)"
       style="font-size:15px;text-anchor:end;fill:#000000;stroke:none;font-family:Arial"
       id="g34">
      <text
         id="text36" />
    </g>
    <path
       d="m 37.3,760.2 9,0 m 1432.9,0 -9,0"
       id="path38" />
    <g
       transform="translate(29,764.7)"
       style="font-size:15px;text-anchor:end;fill:#000000;stroke:none;font-family:Arial"
       id="g40">
      <text
         id="text42" />
    </g>
    <path
       d="m 37.3,574.3 9,0 m 1432.9,0 -9,0"
       id="path44" />
    <g
       transform="translate(29,578.8)"
       style="font-size:15px;text-anchor:end;fill:#000000;stroke:none;font-family:Arial"
       id="g46">
      <text
         id="text48" />
    </g>
    <path
       d="m 37.3,388.4 9,0 m 1432.9,0 -9,0"
       id="path50" />
    <g
       transform="translate(29,392.9)"
       style="font-size:15px;text-anchor:end;fill:#000000;stroke:none;font-family:Arial"
       id="g52">
      <text
         id="text54" />
    </g>
    <path
       d="m 37.3,202.5 9,0 m 1432.9,0 -9,0"
       id="path56" />
    <g
       transform="translate(29,207)"
       style="font-size:15px;text-anchor:end;fill:#000000;stroke:none;font-family:Arial"
       id="g58">
      <text
         id="text60" />
    </g>
    <path
       d="m 37.3,16.6 9,0 m 1432.9,0 -9,0"
       id="path62" />
    <g
       transform="translate(29,21.1)"
       style="font-size:15px;text-anchor:end;fill:#000000;stroke:none;font-family:Arial"
       id="g64">
      <text
         id="text66" />
    </g>
    <path
       d="m 37.3,1132 0,-9 m 0,-1106.4 0,9 m 144.2,1106.4 0,-9 m 0,-1106.4 0,9 m 144.2,1106.4 0,-9 m 0,-1106.4 0,9 m 144.2,1106.4 0,-9 m 0,-1106.4 0,9 m 144.2,1106.4 0,-9 m 0,-1106.4 0,9 m 144.2,1106.4 0,-9 m 0,-1106.4 0,9 m 144.1,1106.4 0,-9 m 0,-1106.4 0,9 m 144.2,1106.4 0,-9 m 0,-1106.4 0,9 m 144.2,1106.4 0,-9 m 0,-1106.4 0,9 M 1335,1132 l 0,-9 m 0,-1106.4 0,9 m 144.2,1106.4 0,-9 m 0,-1106.4 0,9 m -1441.9,-9 0,1115.4 1441.9,0 0,-1115.4 -1441.9,0 z"
       id="path68" />
  </g>
  <g
     style="color:#ff0000;fill:none;stroke:currentColor;stroke-width:1;stroke-linecap:butt;stroke-linejoin:miter"
     id="g70"
     transform="matrix(0.97135718,0,0,0.93362584,42.392299,6.246435)">
    <path
       d="m 37.3,473.9 72.1,-92.5 72.1,18.2 72.1,113.4 72.1,3.4 72.1,-37.2 72.1,-32.8 72.1,74.9 72.1,162 72.1,186.2 72.1,129.2 72,59.8 72.1,28.8 72.1,14.3 72.1,2.4 72.1,1.9 72.1,1.6 72.1,0.9 72.1,3.7 72.1,0.3 M 37.3,343.8 l 72.1,-25.6 72.1,58.6 72.1,114 72.1,29 72.1,-42.7 72.1,-67.4 72.1,70.8 72.1,193.2 72.1,180.7 72.1,139.9 72,70.7 72.1,29.2 72.1,6.6 72.1,3.5 72.1,3.7 72.1,1.3 72.1,0.5 72.1,3.5 72.1,-0.3 M 37.3,607.8 l 72.1,-93.9 72.1,-42.3 72.1,-23 72.1,-12 72.1,-1 72.1,-43.9 72.1,123.8 72.1,221.8 72.1,184.6 72.1,65.3 72,49.3 72.1,47.2 72.1,16.7 72.1,5.4 72.1,4 72.1,1.6 72.1,-0.1 72.1,0.4 72.1,0.8 M 37.3,429.3 l 72.1,-20.5 72.1,75.6 72.1,-27.2 72.1,-6.4 72.1,-8.9 72.1,-60.8 72.1,110.7 72.1,230.8 72.1,169.4 72.1,89.3 72,72.2 72.1,30.9 72.1,13.1 72.1,5.8 72.1,4.1 72.1,2.8 72.1,-0.8 72.1,-0.2 72.1,3.2 M 37.3,183.9 l 72.1,153.8 72.1,130.2 72.1,51.9 72.1,-42.2 72.1,-30.9 72.1,-27.2 72.1,104.9 72.1,164 72.1,205.2 72.1,101.4 72,49.7 72.1,43.3 72.1,11.1 72.1,7.6 72.1,0.4 72.1,3.6 72.1,0.7 72.1,0.3 72.1,1.2 M 37.3,414.4 l 72.1,-114.3 72.1,68.3 72.1,139.7 72.1,14.1 72.1,-48.2 72.1,-78.3 72.1,64.7 72.1,215.9 72.1,162.6 72.1,154.3 72,73 72.1,26 72.1,10.5 72.1,0.3 72.1,6.3 72.1,-0.3 72.1,1.6 72.1,1.4 72.1,1 M 37.3,585.5 l 72.1,-227.8 72.1,-11.8 72.1,49.6 72.1,22.8 72.1,2.3 72.1,-44.7 72.1,99.4 72.1,221.4 72.1,181.5 72.1,103.8 72,59.4 72.1,39.8 72.1,21 72.1,3.4 72.1,4.4 72.1,-1.4 72.1,3.5 72.1,-3.3 72.1,5.2 M 37.3,265.7 l 72.1,62.7 72.1,16.8 72.1,62.2 72.1,6.1 72.1,41.8 72.1,-12.4 72.1,62.5 72.1,169.1 72.1,172.7 72.1,135.5 72,74.8 72.1,31.7 72.1,8.8 72.1,6.4 72.1,1.7 72.1,3.8 72.1,-1.1 72.1,2.2 72.1,1.1 M 37.3,265.7 l 72.1,71.1 72.1,42.5 72.1,40.7 72.1,56.2 72.1,-20.4 72.1,-26.4 72.1,70.3 72.1,178.2 72.1,161 72.1,148 72,74.7 72.1,26 72.1,12.6 72.1,3.6 72.1,1.4 72.1,3.8 72.1,1.6 72.1,0.7 72.1,1.4 M 37.3,217.4 l 72.1,131.5 72.1,63.7 72.1,61.7 72.1,2.2 72.1,-33.7 72.1,-92 72.1,89.3 72.1,215.9 72.1,161.4 72.1,173.2 72,67.7 72.1,29.1 72.1,8.4 72.1,6 72.1,3.2 72.1,4.5 72.1,1.9 72.1,-2.1 72.1,3.1 M 37.3,317.8 l 72.1,67.8 72.1,-6.5 72.1,78.3 72.1,-19.4 72.1,-17.6 72.1,-66.1 72.1,84.2 72.1,223.3 72.1,157.8 72.1,150.1 72,74.9 72.1,37.5 72.1,14.3 72.1,6.2 72.1,1.5 72.1,6.6 72.1,-0.4 72.1,2.2 72.1,0 M 37.3,381 l 72.1,-10.7 72.1,68.3 72.1,45.4 72.1,-0.3 72.1,-36.7 72.1,-99.7 72.1,59.4 72.1,240.7 72.1,164.4 72.1,165.9 72,77.1 72.1,29.8 72.1,12.3 72.1,8.4 72.1,0.3 72.1,0.5 72.1,3.5 72.1,0.9 72.1,1.7 M 37.3,514.8 l 72.1,-93.4 72.1,0.7 72.1,18.4 72.1,-9 72.1,-12.4 72.1,-77.7 72.1,86.3 72.1,216.6 72.1,191.1 72.1,141 72,59.8 72.1,44.5 72.1,13.5 72.1,9.1 72.1,3.1 72.1,1.5 72.1,1.8 72.1,0.4 72.1,1.4 m -1369.8,-764 72.1,76.2 72.1,-34.1 72.1,56.2 72.1,39.4 72.1,-69.2 72.1,-57.3 72.1,69.7 72.1,220.1 72.1,204.9 72.1,111 72,76 72.1,37.9 72.1,18.9 72.1,4.6 72.1,3.4 72.1,4.1 72.1,-2.4 72.1,4.2 72.1,2.3 M 37.3,407 l 72.1,40.9 72.1,-5.6 72.1,26.6 72.1,-2.9 72.1,-16.1 72.1,-99.4 72.1,66.9 72.1,194 72.1,216.4 72.1,144.9 72,72.7 72.1,35.8 72.1,16.4 72.1,4.7 72.1,1.7 72.1,6.1 72.1,-0.9 72.1,2 72.1,1 M 37.3,369.8 l 72.1,-2.8 72.1,63.9 72.1,1 72.1,7.9 72.1,-17.1 72.1,-84.5 72.1,97.8 72.1,205.8 72.1,188.3 72.1,136.7 72,72.7 72.1,39.9 72.1,15 72.1,7.8 72.1,5.2 72.1,0.7 72.1,1 72.1,2.8 72.1,-0.6 M 37.3,366.1 l 72.1,11.1 72.1,67.4 72.1,25.4 72.1,33.5 72.1,-68.3 72.1,-77.6 72.1,52.3 72.1,173.1 72.1,202.6 72.1,178 72,86.8 72.1,38.1 72.1,10 72.1,1.3 72.1,6.5 72.1,0.1 72.1,1.4 72.1,0.9 72.1,1.6 M 37.3,459 l 72.1,-113.8 72.1,31.6 72.1,82.1 72.1,13.2 72.1,-23.6 72.1,-51.9 72.1,27.4 72.1,173.3 72.1,175.5 72.1,191.1 72,87.7 72.1,32.4 72.1,12 72.1,5.3 72.1,6.1 72.1,-0.5 72.1,2.6 72.1,0.1 72.1,2.1 M 37.3,440.5 l 72.1,-18.6 72.1,-34.9 72.1,48.1 72.1,46.2 72.1,-69.8 72.1,-67.2 72.1,80.4 72.1,207.7 72.1,190 72.1,150.8 72,73.7 72.1,39.4 72.1,10.8 72.1,4.6 72.1,2.8 72.1,4.4 72.1,1.4 72.1,0.6 72.1,1.5 M 37.3,395.8 l 72.1,-18.6 72.1,-35 72.1,76.3 72.1,7.4 72.1,-24.7 72.1,-41.2 72.1,94.2 72.1,192.9 72.1,171 72.1,146.6 72,77.5 72.1,43.5 72.1,11.6 72.1,2.8 72.1,5.1 72.1,4.6 72.1,0.6 72.1,-0.3 72.1,3.3 m -1369.8,-844 72.1,76.7 72.1,27.4 72.1,38.7 72.1,19.6 72.1,8.2 72.1,-68 72.1,56.9 72.1,197.4 72.1,190.6 72.1,158.2 72,73.8 72.1,31.4 72.1,20.4 72.1,4.7 72.1,0.4 72.1,3.8 72.1,2.6 72.1,-2.8 72.1,3.2 M 37.3,347.5 l 72.1,6 72.1,117.2 72.1,-10.5 72.1,-34.6 72.1,-6.9 72.1,-106.7 72.1,117.7 72.1,225.4 72.1,152.4 72.1,162.8 72,77.7 72.1,37.9 72.1,13.1 72.1,6.1 72.1,0.3 72.1,1.7 72.1,2 72.1,-0.6 72.1,4.1 M 37.3,183.9 l 72.1,81.3 72.1,162.7 72.1,23.3 72.1,-54.7 72.1,16.7 72.1,-52 72.1,95.8 72.1,179.6 72.1,172.1 72.1,154.5 72,79.5 72.1,40.6 72.1,16 72.1,-0.3 72.1,6.5 72.1,1.9 72.1,0.8 72.1,1.1 72.1,2.5 M 37.3,265.7 l 72.1,144.1 72.1,2.3 72.1,60.1 72.1,-18.6 72.1,-56.4 72.1,-58.2 72.1,92.9 72.1,213.6 72.1,202.1 72.1,121.7 72,68.6 72.1,44 72.1,12.2 72.1,9.7 72.1,-0.6 72.1,1.5 72.1,6.3 72.1,1 72.1,0.7 M 37.3,388.4 l 72.1,22.8 72.1,1.1 72.1,49.9 72.1,15.1 72.1,-39.6 72.1,-91.5 72.1,95.3 72.1,179.1 72.1,186.8 72.1,147.8 72,91.3 72.1,36.2 72.1,11.8 72.1,10.2 72.1,0.9 72.1,2.9 72.1,-2.3 72.1,4.6 72.1,0.9 M 37.3,433 l 72.1,-64.6 72.1,20.5 72.1,81.9 72.1,-5.7 72.1,-24.7 72.1,-97.4 72.1,84.4 72.1,206.3 72.1,166.9 72.1,166.1 72,83.9 72.1,34.4 72.1,12.2 72.1,5.7 72.1,4.9 72.1,-2 72.1,3.2 72.1,1.1 72.1,2.6"
       id="path72"
       style="stroke:#004cff" />
    <path
       d="m 37.3,317.8 72.1,46 72.1,66.2 72.1,-18.9 72.1,43.6 72.1,-55.3 72.1,-57.2 72.1,116 72.1,190.8 72.1,200.6 72.1,110.9 72,69.5 72.1,49.1 72.1,16.5 72.1,5.6 72.1,4.1 72.1,1.6 72.1,2.6 72.1,0.6 72.1,1.6 M 37.3,269.4 l 72.1,151.5 72.1,-1.8 72.1,-5.6 72.1,55.9 72.1,-25 72.1,-51.6 72.1,54.5 72.1,191.1 72.1,158.4 72.1,169.5 72,78.3 72.1,38 72.1,14.4 72.1,6.7 72.1,0.6 72.1,4.4 72.1,0.6 72.1,0.7 72.1,1.9 M 37.3,470.2 l 72.1,-12.1 72.1,-8.1 72.1,-0.4 72.1,-11 72.1,-2.1 72.1,-22.4 72.1,50.7 72.1,159.2 72.1,176.9 72.1,163.1 72,66.5 72.1,52.1 72.1,13.9 72.1,3.6 72.1,5.1 72.1,0.3 72.1,2.5 72.1,1.9 72.1,2.7"
       id="path74"
       style="stroke:#004cff" />
  </g>
  <g
     style="color:#008000;fill:none;stroke:currentColor;stroke-width:1;stroke-linecap:butt;stroke-linejoin:miter"
     id="g76"
     transform="matrix(0.97135718,0,0,0.93362584,42.392299,6.246435)">
    <path
       d="m 37.3,1087.4 72.1,-8.4 72.1,-8.6 72.1,-8.1 72.1,-2.6 72.1,-36.2 72.1,-31.6 72.1,22.7 72.1,39.1 72.1,33.8 72.1,21.3 72,4.9 72.1,1.3 72.1,1.9 72.1,-2.3 72.1,0.5 72.1,0.6 72.1,0.7 72.1,-0.3 72.1,0.1 m -1369.8,-28.8 72.1,-23.7 72.1,10.4 72.1,-10.9 72.1,-7.3 72.1,-19.3 72.1,-38.8 72.1,-17.6 72.1,64.4 72.1,47.9 72.1,16.5 72,3.2 72.1,2.3 72.1,0.2 72.1,-0.7 72.1,0 72.1,1.3 72.1,2.4 72.1,-0.6 72.1,-0.6 m -1369.8,-55.1 72.1,6 72.1,3.5 72.1,-11 72.1,-2.4 72.1,-26.4 72.1,-23.3 72.1,1.3 72.1,37.3 72.1,44.2 72.1,17.5 72,2.9 72.1,2.9 72.1,1.9 72.1,-1.3 72.1,0.7 72.1,-0.4 72.1,-0.3 72.1,2 72.1,0.3 m -1369.8,-55.4 72.1,4.6 72.1,2.6 72.1,-7.8 72.1,-11.8 72.1,-25.7 72.1,-7.8 72.1,-3.6 72.1,40.1 72.1,36.5 72.1,16.3 72,9.9 72.1,-1.4 72.1,2.5 72.1,-2.2 72.1,-0.5 72.1,0.2 72.1,3.9 72.1,-2.3 72.1,1.8 m -1369.8,-29.3 72.1,-1.9 72.1,-12.5 72.1,-10 72.1,0.4 72.1,-20.4 72.1,-34.5 72.1,-0.7 72.1,43.9 72.1,43.5 72.1,15.9 72,3.9 72.1,-0.2 72.1,0.1 72.1,-0.9 72.1,2 72.1,-1 72.1,1.7 72.1,1.9 72.1,-2.1 m -1369.8,-51.4 72.1,1.8 72.1,2.8 72.1,-6.7 72.1,-9.7 72.1,-13.3 72.1,-37.2 72.1,-3.5 72.1,51.7 72.1,41.2 72.1,16.2 72,5.2 72.1,-0.3 72.1,2.6 72.1,-2.7 72.1,1.6 72.1,0.5 72.1,-1.6 72.1,3.9 72.1,-1 m -1369.8,-55.2 72.1,4.1 72.1,1.7 72.1,-4.7 72.1,-9.5 72.1,-18.5 72.1,-39.4 72.1,10.4 72.1,43 72.1,47.8 72.1,11.3 72,4.8 72.1,2.1 72.1,0.7 72.1,0.9 72.1,-1.2 72.1,-1.1 72.1,1 72.1,-0.1 72.1,1.6 m -1369.8,-36.4 72.1,-9.7 72.1,-6.5 72.1,3 72.1,-16.7 72.1,-31.2 72.1,-6.6 72.1,9.7 72.1,28.4 72.1,40 72.1,15 72,5.9 72.1,1.6 72.1,-0.8 72.1,0.9 72.1,2.7 72.1,-1.8 72.1,0.2 72.1,-0.3 72.1,2.9 m -1369.8,-66.4 72.1,19.1 72.1,6.2 72.1,-6 72.1,-7.1 72.1,-25.9 72.1,-35.6 72.1,7.4 72.1,48.4 72.1,32.8 72.1,17.2 72,6.1 72.1,-0.3 72.1,1 72.1,2.1 72.1,-0.3 72.1,-1.3 72.1,1.7 72.1,0.4 72.1,-1.2 m -1369.8,-38.7 72.1,-6.9 72.1,-1.7 72.1,2.1 72.1,-11 72.1,-17.4 72.1,-28.3 72.1,0.4 72.1,42.8 72.1,34.7 72.1,17.2 72,5.4 72.1,1 72.1,0.9 72.1,0.6 72.1,-1.1 72.1,1.3 72.1,-0.7 72.1,-0.8 72.1,0.9 m -1369.8,-35.7 72.1,1.4 72.1,-6.5 72.1,-2.8 72.1,-5.8 72.1,-32.1 72.1,-28.2 72.1,10.5 72.1,43.4 72.1,28.2 72.1,21.2 72,3.9 72.1,1.2 72.1,0.1 72.1,-0.7 72.1,1.9 72.1,-0.4 72.1,0.6 72.1,2.3 72.1,-2.4 m -1369.8,-54.3 72.1,13 72.1,-0.7 72.1,-7.9 72.1,-0.4 72.1,-30.6 72.1,-34.1 72.1,7 72.1,44 72.1,39.9 72.1,18.6 72,1.8 72.1,2.1 72.1,-0.1 72.1,2.2 72.1,-2 72.1,0.2 72.1,1.8 72.1,-0.6 72.1,0.7 m -1369.8,-47.5 72.1,7 72.1,-2.6 72.1,-3.5 72.1,-14.2 72.1,-19.8 72.1,-32.2 72.1,12.7 72.1,35.8 72.1,30.7 72.1,22.1 72,6.6 72.1,3.1 72.1,-0.9 72.1,2.5 72.1,-0.9 72.1,0.8 72.1,-0.2 72.1,0.7 72.1,-1.5 m -1369.8,-38.8 72.1,5.1 72.1,-8.6 72.1,-13.8 72.1,-11.2 72.1,-27.9 72.1,-14.1 72.1,28 72.1,26.7 72.1,19.5 72.1,22.7 72,9.8 72.1,2 72.1,-0.7 72.1,-0.2 72.1,1 72.1,1 72.1,1.3 72.1,-2.2 72.1,1.4 m -1369.8,-62.1 72.1,16.8 72.1,0.4 72.1,-0.3 72.1,-10.7 72.1,-21.4 72.1,-32.4 72.1,8.8 72.1,43.6 72.1,33.1 72.1,15.2 72,3.4 72.1,2.4 72.1,0.9 72.1,0.5 72.1,0.3 72.1,2.5 72.1,-2.3 72.1,1.4 72.1,-0.1 m -1369.8,-17.5 72.1,-38.1 72.1,14.9 72.1,-10.2 72.1,-11.6 72.1,-20.2 72.1,-26.6 72.1,11.1 72.1,42.6 72.1,29 72.1,15.4 72,8.9 72.1,-2 72.1,0.5 72.1,0.1 72.1,2.3 72.1,0.4 72.1,-1.5 72.1,1.9 72.1,-0.2 m -1369.8,-42.7 72.1,-4.6 72.1,6.7 72.1,-10.1 72.1,-8.9 72.1,-25.7 72.1,-30.2 72.1,26.5 72.1,39.2 72.1,23.2 72.1,16 72,6.7 72.1,3 72.1,1.3 72.1,-2.7 72.1,1.9 72.1,-1.5 72.1,1.9 72.1,-0.4 72.1,1.2 m -1369.8,-47.2 72.1,-2.3 72.1,-3.7 72.1,1 72.1,-25.7 72.1,-22.9 72.1,-10.7 72.1,32.8 72.1,28.9 72.1,17.7 72.1,17.1 72,11.3 72.1,-0.1 72.1,3.4 72.1,2.2 72.1,-3.3 72.1,0.1 72.1,-0.7 72.1,-0.7 72.1,3.4 m -1369.8,-51.5 72.1,-1.4 72.1,-2.6 72.1,7.1 72.1,-2.7 72.1,-32.3 72.1,-27.9 72.1,15.5 72.1,33.7 72.1,39.9 72.1,14.5 72,0.2 72.1,5.6 72.1,1.5 72.1,-0.9 72.1,0.2 72.1,-1.1 72.1,-0.2 72.1,0.2 72.1,1 m -1369.8,-46.6 72.1,7.9 72.1,-0.9 72.1,-8.9 72.1,-7.6 72.1,-13 72.1,-29.2 72.1,-10.8 72.1,48.4 72.1,35.9 72.1,16.9 72,4.3 72.1,-0.4 72.1,2.3 72.1,0.5 72.1,-2 72.1,2.6 72.1,0.3 72.1,-0.1 72.1,0.1 m -1369.8,-38.9 72.1,3.7 72.1,-8.1 72.1,-3 72.1,-13.2 72.1,-15.2 72.1,-21.4 72.1,-3.8 72.1,42 72.1,35 72.1,17.2 72,4.2 72.1,0.4 72.1,-0.8 72.1,0.5 72.1,2.5 72.1,-2.1 72.1,1.7 72.1,-0.9 72.1,1 m -1369.8,-39.7 72.1,-0.4 72.1,6.7 72.1,-16.3 72.1,-3.4 72.1,-25.3 72.1,-23.2 72.1,-5.1 72.1,33.6 72.1,48.2 72.1,15.6 72,6.4 72.1,-0.1 72.1,-0.5 72.1,2 72.1,3.2 72.1,-1.8 72.1,-0.9 72.1,-0.7 72.1,2.3 m -1369.8,-51.4 72.1,13.5 72.1,-8.6 72.1,-1.6 72.1,-14.6 72.1,-12 72.1,-30.6 72.1,-10.1 72.1,44.5 72.1,47.5 72.1,15.6 72,3.1 72.1,2.1 72.1,0 72.1,-0.6 72.1,0.5 72.1,1.5 72.1,-1.2 72.1,0.6 72.1,1.1 m -1369.8,-58.2 72.1,13.1 72.1,12.5 72.1,-22.8 72.1,-7.3 72.1,-16.2 72.1,-32.4 72.1,0 72.1,47.4 72.1,37.4 72.1,20.7 72,3.3 72.1,1.8 72.1,-1 72.1,2.3 72.1,-2.1 72.1,1.7 72.1,-1.7 72.1,4.1 72.1,-3.3 m -1369.8,-42.6 72.1,5.1 72.1,-3.7 72.1,-11.1 72.1,-7 72.1,-17.2 72.1,-22 72.1,-5.6 72.1,42.7 72.1,38.5 72.1,12.9 72,7.9 72.1,2.6 72.1,-1.3 72.1,1.3 72.1,1.8 72.1,-0.6 72.1,-1.2 72.1,-0.5 72.1,1.4 m -1369.8,-81.2 72.1,35.8 72.1,1.2 72.1,-14.3 72.1,-2.8 72.1,-13.2 72.1,-34.3 72.1,-3.5 72.1,45.2 72.1,41.4 72.1,18.2 72,3.3 72.1,4.1 72.1,-2.7 72.1,2.4 72.1,0.8 72.1,-2.1 72.1,1 72.1,-0.7 72.1,1.1"
       id="path78"
       style="stroke:#ff0000" />
    <path
       d="m 37.3,1068.8 72.1,6 72.1,-7.2 72.1,0.8 72.1,-9.2 72.1,-19.9 72.1,-29 72.1,-10 72.1,45.8 72.1,44.1 72.1,18.3 72,4.6 72.1,1.4 72.1,-2.6 72.1,2.8 72.1,1.1 72.1,-0.8 72.1,1 72.1,-1.7 72.1,2 m -1369.8,-51.2 72.1,5.1 72.1,-0.7 72.1,-2.8 72.1,-7 72.1,-15.4 72.1,-39.3 72.1,-10.7 72.1,56.9 72.1,43.1 72.1,14.3 72,3.2 72.1,2.6 72.1,-0.5 72.1,2.6 72.1,-3.7 72.1,0.8 72.1,2.7 72.1,-1.2 72.1,0.2 m -1369.8,-50.2 72.1,-14.9 72.1,19.1 72.1,-11.1 72.1,-2.3 72.1,-30 72.1,-10.7 72.1,15.3 72.1,29.1 72.1,23.2 72.1,20.2 72,9.7 72.1,0.5 72.1,0.2 72.1,2.2 72.1,0.2 72.1,0.9 72.1,-1.2 72.1,-2.9 72.1,2.8"
       id="path80"
       style="stroke:#ff0000" />
  </g>
  <g
     style="color:#0000ff;fill:none;stroke:currentColor;stroke-width:1;stroke-linecap:butt;stroke-linejoin:miter"
     id="g82"
     transform="matrix(0.97135718,0,0,0.93362584,42.392299,6.246435)">
    <path
       d="m 37.3,845.7 72.1,65.1 72.1,-70 72.1,20.3 72.1,116.6 72.1,98.5 72.1,23.2 72.1,6.7 72.1,0.3 72.1,3.2 72.1,4.5 72,-2.5 72.1,1.8 72.1,-0.3 72.1,2.1 72.1,-0.4 72.1,1 72.1,0.3 72.1,-0.2 72.1,0.3 M 37.3,961 l 72.1,-49.3 72.1,-73.2 72.1,46.6 72.1,97.1 72.1,93.2 72.1,27.9 72.1,4.1 72.1,4.1 72.1,-0.3 72.1,0.8 72,-1.1 72.1,2 72.1,-0.7 72.1,-0.2 72.1,4.9 72.1,-0.9 72.1,-1.4 72.1,2.7 72.1,-1.3 M 37.3,890.3 l 72.1,-40.9 72.1,-48.3 72.1,68.2 72.1,125.4 72.1,82.8 72.1,24.7 72.1,4.6 72.1,4.6 72.1,1.4 72.1,-0.2 72,1.6 72.1,1.2 72.1,-1.7 72.1,0.9 72.1,0.4 72.1,0.7 72.1,-1.1 72.1,0.7 72.1,1.5 M 37.3,905.2 l 72.1,51.1 72.1,-77.1 72.1,12.2 72.1,123.2 72.1,66.1 72.1,21.1 72.1,5.7 72.1,3.7 72.1,-2.9 72.1,1.4 72,5.3 72.1,-0.7 72.1,-0.2 72.1,-1.4 72.1,2.5 72.1,1.3 72.1,-1 72.1,1.1 72.1,-0.7 M 37.3,853.1 l 72.1,59.1 72.1,-35.8 72.1,17.8 72.1,116.8 72.1,70.6 72.1,19.9 72.1,8.1 72.1,0.9 72.1,1.9 72.1,0 72,0.5 72.1,0.8 72.1,0.6 72.1,2.7 72.1,-0.8 72.1,-0.9 72.1,0.7 72.1,3.2 72.1,-2.6 M 37.3,853.1 l 72.1,42.3 72.1,-48.5 72.1,48.1 72.1,104.2 72.1,77 72.1,23.3 72.1,8.9 72.1,5.2 72.1,0.1 72.1,-1.5 72,2.1 72.1,0.8 72.1,0.4 72.1,-0.4 72.1,2.6 72.1,-2.9 72.1,-0.5 72.1,0.1 72.1,2 M 37.3,975.8 l 72.1,-39 72.1,-108.7 72.1,60 72.1,99.2 72.1,83.2 72.1,29.6 72.1,5.3 72.1,5.8 72.1,-1.6 72.1,3.2 72,0.7 72.1,1.2 72.1,1.5 72.1,1 72.1,-4.2 72.1,2 72.1,0.7 72.1,0.2 72.1,0 M 37.3,949.8 109.4,914 l 72.1,-83.6 72.1,-8.1 72.1,172 72.1,83.9 72.1,20 72.1,8.4 72.1,2 72.1,4.2 72.1,-1.4 72,0.3 72.1,1.3 72.1,2.1 72.1,-1.5 72.1,1.9 72.1,-1.4 72.1,-0.2 72.1,0.9 72.1,0.2 M 37.3,860.6 l 72.1,31.1 72.1,-66.2 72.1,25.4 72.1,152.5 72.1,81.3 72.1,19 72.1,0.6 72.1,7.9 72.1,-1.2 72.1,-0.4 72,1.9 72.1,-1.2 72.1,5 72.1,-4.3 72.1,2.8 72.1,0 72.1,-1.6 72.1,2.3 72.1,0 M 37.3,961 l 72.1,-53.9 72.1,-52.3 72.1,10.2 72.1,129.6 72.1,83.9 72.1,20 72.1,9.1 72.1,1 72.1,2.2 72.1,0.4 72,4.1 72.1,0 72.1,-1.4 72.1,0.5 72.1,-1 72.1,2.3 72.1,-0.2 72.1,1.8 72.1,-1.1 M 37.3,942.4 l 72.1,-66 72.1,-67.2 72.1,82.6 72.1,107.4 72.1,69.6 72.1,31 72.1,4.2 72.1,8.7 72.1,-3.9 72.1,3.7 72,1.4 72.1,-2.1 72.1,3.9 72.1,1.1 72.1,-2 72.1,1.5 72.1,-2.1 72.1,1.3 72.1,0.5 M 37.3,816 l 72.1,55.7 72.1,-63.9 72.1,27.1 72.1,171.3 72.1,75.8 72.1,18.3 72.1,3.3 72.1,6.1 72.1,-0.6 72.1,2.7 72,0.2 72.1,0 72.1,3.6 72.1,-1.4 72.1,1.7 72.1,-0.4 72.1,-1.2 72.1,0.6 72.1,0.8 M 37.3,882.9 l 72.1,7.4 72.1,-11.1 72.1,-17.7 72.1,124.9 72.1,93.5 72.1,23.2 72.1,5.8 72.1,5 72.1,-1.8 72.1,-0.9 72,-1.3 72.1,2.3 72.1,0.1 72.1,0.9 72.1,2.3 72.1,-1.1 72.1,2 72.1,0.3 72.1,-0.8 M 37.3,923.8 109.4,908 l 72.1,-36.3 72.1,-15.4 72.1,99.3 72.1,119.3 72.1,26.6 72.1,8.6 72.1,-1.1 72.1,1.2 72.1,3.5 72,-2.8 72.1,0.5 72.1,3.3 72.1,1.3 72.1,-2.1 72.1,0.6 72.1,3.9 72.1,-4.2 72.1,2.2 m -1369.8,-148 72.1,-29.3 72.1,-64.1 72.1,17 72.1,87.9 72.1,83.5 72.1,41.1 72.1,2.4 72.1,2.2 72.1,0.5 72.1,2 72,0.2 72.1,1.1 72.1,3.2 72.1,-2.4 72.1,2.1 72.1,2.5 72.1,-2.2 72.1,-1.9 72.1,1.5 M 37.3,908.9 l 72.1,-54.4 72.1,-33.2 72.1,75 72.1,98.1 72.1,79.1 72.1,25.3 72.1,6.5 72.1,4.5 72.1,1.9 72.1,-0.1 72,1.2 72.1,-1.3 72.1,3.5 72.1,1.6 72.1,-1.4 72.1,2 72.1,-0.3 72.1,0.4 72.1,-1.9 M 37.3,961 l 72.1,-56.3 72.1,-79.7 72.1,59.8 72.1,102 72.1,87.9 72.1,29.9 72.1,2.7 72.1,3.3 72.1,-1.6 72.1,5 72,-0.6 72.1,-0.1 72.1,-0.4 72.1,5.3 72.1,-1.7 72.1,-1.4 72.1,2.9 72.1,-2.8 72.1,1 M 37.3,923.8 109.4,908 l 72.1,-83.9 72.1,31.7 72.1,121.3 72.1,95.1 72.1,28.8 72.1,7.4 72.1,-0.6 72.1,1.7 72.1,2.4 72,-0.1 72.1,1.4 72.1,0.4 72.1,0.9 72.1,-1.6 72.1,1.6 72.1,2.7 72.1,-2.2 72.1,1.7 M 37.3,957.3 l 72.1,-54.9 72.1,-77.1 72.1,20.6 72.1,128.1 72.1,96.9 72.1,32 72.1,5.2 72.1,4.4 72.1,-2.5 72.1,2.4 72,0.5 72.1,0.8 72.1,-0.9 72.1,1.8 72.1,2.1 72.1,-1 72.1,-3 72.1,4.3 72.1,-0.5 M 37.3,916.4 l 72.1,-45.1 72.1,-24 72.1,34.5 72.1,102.7 72.1,92.6 72.1,19.9 72.1,8.7 72.1,2.2 72.1,1 72.1,6 72,-5.3 72.1,1.5 72.1,2.5 72.1,1.1 72.1,0.8 72.1,-2.4 72.1,3.4 72.1,-1.5 72.1,-0.5 M 37.3,946.1 109.4,868 l 72.1,2.3 72.1,-3.8 72.1,110 72.1,97.9 72.1,24.1 72.1,8.2 72.1,1.2 72.1,2.3 72.1,-0.1 72,2.8 72.1,4.4 72.1,-1.7 72.1,-0.2 72.1,1.6 72.1,1 72.1,-3.5 72.1,4.4 72.1,-2.6 M 37.3,760.2 l 72.1,62.7 72.1,-27.8 72.1,63.6 72.1,126.6 72.1,83.1 72.1,30.2 72.1,6.4 72.1,4.8 72.1,0.1 72.1,2.6 72,0 72.1,-2.4 72.1,5.8 72.1,-3.7 72.1,2.3 72.1,3.5 72.1,-2.8 72.1,1.9 72.1,-2 M 37.3,908.9 l 72.1,-31.6 72.1,-86.9 72.1,52.7 72.1,130.9 72.1,94.3 72.1,33.7 72.1,6.7 72.1,1.6 72.1,0.5 72.1,1.6 72,1.1 72.1,0.3 72.1,2.6 72.1,-2.6 72.1,0.8 72.1,1.7 72.1,1.5 72.1,-2.1 72.1,0.8 M 37.3,771.4 l 72.1,93.4 72.1,-78.1 72.1,55.1 72.1,132.2 72.1,89.4 72.1,35 72.1,8 72.1,4 72.1,-0.8 72.1,5.5 72,-0.2 72.1,0 72.1,-1.6 72.1,-0.8 72.1,4.2 72.1,0 72.1,0.2 72.1,-1.2 72.1,1.2 m -1369.8,-353 72.1,119.9 72.1,-78.5 72.1,17.9 72.1,139.3 72.1,113.8 72.1,23.7 72.1,7.4 72.1,2.6 72.1,-0.6 72.1,2 72,2.1 72.1,1.4 72.1,0.2 72.1,-0.6 72.1,0 72.1,3.1 72.1,-1.3 72.1,-1.4 72.1,1.8 M 37.3,838.3 l 72.1,14.4 72.1,-73.2 72.1,114.7 72.1,90.5 72.1,78 72.1,33.5 72.1,10.2 72.1,3.5 72.1,2.5 72.1,-2.5 72,2.5 72.1,-2.2 72.1,3.4 72.1,1.3 72.1,2.3 72.1,-1.3 72.1,-0.2 72.1,-0.2 72.1,1.1"
       id="path84"
       style="stroke:#00ff00" />
    <path
       d="m 37.3,890.3 72.1,-77.1 72.1,-3.7 72.1,57.2 72.1,117 72.1,81.2 72.1,32.1 72.1,8 72.1,5.8 72.1,0.4 72.1,0.5 72,2.1 72.1,-0.7 72.1,2.9 72.1,0.4 72.1,0.6 72.1,-2.6 72.1,0.4 72.1,-0.6 72.1,3.2 M 37.3,890.3 l 72.1,-13.9 72.1,-44.2 72.1,21.3 72.1,123.9 72.1,90.4 72.1,29.7 72.1,7.7 72.1,2.2 72.1,3.4 72.1,1.2 72,2 72.1,-1.9 72.1,1.9 72.1,2.2 72.1,-1.7 72.1,1.3 72.1,-1.3 72.1,1.8 72.1,-0.3 M 37.3,767.6 l 72.1,69.3 72.1,-58.3 72.1,64.9 72.1,121.7 72.1,95.9 72.1,40.9 72.1,2.1 72.1,8.2 72.1,0.8 72.1,1.3 72,-3 72.1,3.6 72.1,-2.4 72.1,3 72.1,1.2 72.1,-0.6 72.1,0.3 72.1,0.6 72.1,-1.7"
       id="path86"
       style="stroke:#00ff00" />
  </g>
  <g
     style="color:#00ffff;fill:none;stroke:currentColor;stroke-width:1;stroke-linecap:butt;stroke-linejoin:miter"
     id="g88"
     transform="matrix(0.97135718,0,0,0.93362584,42.392299,6.246435)">
    <path
       d="m 37.3,734.2 72.1,117.6 72.1,161.9 72.1,60.9 72.1,12.9 72.1,8.2 72.1,7.8 72.1,-1.6 72.1,6.2 72.1,-5.3 72.1,0.9 72,0 72.1,1.2 72.1,-0.3 72.1,1.3 72.1,-0.1 72.1,1.3 72.1,2 72.1,-0.7 72.1,2.9 M 37.3,373.5 l 72.1,384.8 72.1,234.3 72.1,57.4 72.1,35.4 72.1,12.6 72.1,3.7 72.1,0.7 72.1,0.3 72.1,2.9 72.1,-4.2 72,6.1 72.1,-1.2 72.1,-2.7 72.1,3.6 72.1,2.1 72.1,-1.7 72.1,0.3 72.1,3.7 72.1,0.3 M 37.3,723 l 72.1,117.1 72.1,149 72.1,52.9 72.1,40.7 72.1,17.1 72.1,4.4 72.1,1 72.1,0.4 72.1,2.3 72.1,-1.8 72,-0.2 72.1,-1.5 72.1,-1.5 72.1,5.1 72.1,-0.4 72.1,1.8 72.1,2.6 72.1,-2.3 72.1,3.5 M 37.3,436.7 l 72.1,268.7 72.1,229.1 72.1,113.7 72.1,32.8 72.1,14.6 72.1,9.1 72.1,-0.7 72.1,1.8 72.1,-0.5 72.1,-1.2 72,2 72.1,-0.5 72.1,0.3 72.1,-0.3 72.1,2.5 72.1,-1.5 72.1,2.6 72.1,2.2 72.1,1.4 M 37.3,183.9 l 72.1,355.5 72.1,410.9 72.1,116.3 72.1,28.5 72.1,6.5 72.1,7.6 72.1,-0.7 72.1,-6.4 72.1,2.4 72.1,0.8 72,-1.8 72.1,-0.1 72.1,2.8 72.1,2.6 72.1,-1.3 72.1,2.7 72.1,0.1 72.1,0.7 72.1,1.7 M 37.3,276.9 l 72.1,379.7 72.1,306.2 72.1,75.5 72.1,35.1 72.1,22.4 72.1,3.5 72.1,5.7 72.1,3.8 72.1,-2.2 72.1,-1 72,-2.6 72.1,2.9 72.1,-0.3 72.1,0.4 72.1,3.7 72.1,-2.4 72.1,3.7 72.1,-1.8 72.1,3.2 m -1369.8,-486 72.1,117.5 72.1,225.4 72.1,106 72.1,11 72.1,13.7 72.1,1.5 72.1,5.6 72.1,-0.7 72.1,2.1 72.1,-5.2 72,1.7 72.1,-1.8 72.1,1.3 72.1,1.9 72.1,2.5 72.1,-1.4 72.1,4.2 72.1,-2.4 72.1,2.8 M 37.3,957.3 l 72.1,13.4 72.1,31.9 72.1,56.3 72.1,32.2 72.1,8.2 72.1,4.1 72.1,-1.7 72.1,4.7 72.1,1.8 72.1,-6.2 72,2.3 72.1,-0.5 72.1,1.3 72.1,1.3 72.1,-0.3 72.1,3.8 72.1,-0.9 72.1,2.3 72.1,0.6 m -1369.8,-374 72.1,92.5 72.1,173.3 72.1,61.2 72.1,22 72.1,10.3 72.1,3.8 72.1,2 72.1,3.5 72.1,-3.2 72.1,1.4 72,1.7 72.1,-4.2 72.1,4.9 72.1,0.4 72.1,1.8 72.1,0.4 72.1,-0.2 72.1,1.2 72.1,1.6 M 37.3,381 l 72.1,308.1 72.1,295.6 72.1,75.7 72.1,29.6 72.1,6.1 72.1,6.6 72.1,-1 72.1,4.6 72.1,-4.4 72.1,3 72,0 72.1,1.6 72.1,-0.6 72.1,2.7 72.1,-2.3 72.1,4.5 72.1,2.1 72.1,-1.4 72.1,1.6 M 37.3,756.5 l 72.1,81.3 72.1,164.8 72.1,61.2 72.1,24.8 72.1,14.4 72.1,-2.8 72.1,1.4 72.1,7.2 72.1,-5.6 72.1,0.5 72,-1.1 72.1,2.3 72.1,1 72.1,1 72.1,-0.5 72.1,4.1 72.1,1.9 72.1,-2 72.1,2.7 M 37.3,842 l 72.1,58.1 72.1,117.1 72.1,56.4 72.1,19.1 72.1,7 72.1,3.1 72.1,2.2 72.1,0.2 72.1,-5.7 72.1,9.2 72,-5.1 72.1,1.2 72.1,-0.4 72.1,0.2 72.1,2.8 72.1,1.1 72.1,2.7 72.1,-1 72.1,2.3 m -1369.8,-211 72.1,17.2 72.1,84.3 72.1,68.4 72.1,17.4 72.1,10.2 72.1,2.4 72.1,3.6 72.1,-1.8 72.1,4.8 72.1,-6.3 72,4.9 72.1,-3.6 72.1,1.9 72.1,2.3 72.1,0.6 72.1,-1.4 72.1,4.9 72.1,-1.2 72.1,2.6 M 37.3,745.3 l 72.1,153.9 72.1,98.7 72.1,65.9 72.1,24.2 72.1,8.3 72.1,8 72.1,2.8 72.1,-1.9 72.1,-1.2 72.1,3 72,-5.6 72.1,2.1 72.1,3.3 72.1,0.5 72.1,-0.3 72.1,3.5 72.1,-0.4 72.1,0.6 72.1,1.2 m -1369.8,-203 72.1,-100.8 72.1,138.7 72.1,105.1 72.1,37.3 72.1,11 72.1,0 72.1,1.2 72.1,3.5 72.1,-3 72.1,1.9 72,0.6 72.1,1.9 72.1,1.4 72.1,-1.3 72.1,4.8 72.1,-2.2 72.1,-0.8 72.1,1.9 72.1,3 M 37.3,979.6 l 72.1,-159.4 72.1,81.1 72.1,142.2 72.1,41.4 72.1,6.5 72.1,4.9 72.1,10 72.1,-1.8 72.1,-3.3 72.1,2.1 72,0.7 72.1,0.7 72.1,0.1 72.1,2 72.1,-0.8 72.1,4 72.1,-1.2 72.1,0.2 72.1,3.3 M 37.3,183.9 l 72.1,254.7 72.1,476.6 72.1,135 72.1,35.2 72.1,14.7 72.1,0.2 72.1,0.8 72.1,5.3 72.1,0.4 72.1,-1.4 72,-0.9 72.1,0.5 72.1,2.8 72.1,-1.1 72.1,1.6 72.1,1.1 72.1,-1.6 72.1,5 72.1,0.2 M 37.3,626.4 l 72.1,85 72.1,200.5 72.1,140.7 72.1,28.9 72.1,18.9 72.1,0 72.1,3.9 72.1,3.3 72.1,-3.6 72.1,2.8 72,-7.4 72.1,5 72.1,-0.9 72.1,3.6 72.1,0.8 72.1,2.5 72.1,-0.8 72.1,1.9 72.1,0.4 M 37.3,897.8 l 72.1,40.9 72.1,69 72.1,69.3 72.1,13.9 72.1,7.4 72.1,3.3 72.1,1.5 72.1,2.3 72.1,1.6 72.1,0 72,1.3 72.1,-2.3 72.1,0.8 72.1,-0.6 72.1,1.4 72.1,0.6 72.1,2 72.1,0.1 72.1,3.2 M 37.3,949.8 l 72.1,-42.7 72.1,78.7 72.1,80.2 72.1,20 72.1,8.2 72.1,8 72.1,3.5 72.1,-2.7 72.1,3.4 72.1,1.2 72,-0.2 72.1,-3.2 72.1,2.8 72.1,0.3 72.1,1.3 72.1,2.4 72.1,-2.9 72.1,2.5 72.1,2.3 M 37.3,589.2 l 72.1,248.6 72.1,187.1 72.1,46.1 72.1,16.2 72.1,13.1 72.1,-0.8 72.1,2.2 72.1,5 72.1,-2.8 72.1,2.1 72,-2.5 72.1,0.9 72.1,0.4 72.1,3.3 72.1,-1.7 72.1,1 72.1,2.9 72.1,-0.1 72.1,2.4 M 37.3,949.8 l 72.1,-4.2 72.1,43 72.1,76.3 72.1,20.8 72.1,11.9 72.1,4.1 72.1,-0.1 72.1,2.8 72.1,-1.5 72.1,4.2 72,-4.3 72.1,2.2 72.1,2.3 72.1,0.3 72.1,0.1 72.1,0.6 72.1,3.5 72.1,1 72.1,0 m -1369.8,-453 72.1,232.9 72.1,118.9 72.1,61.5 72.1,14.7 72.1,7.2 72.1,11.3 72.1,-1.9 72.1,1.8 72.1,-2 72.1,2 72,-4.5 72.1,1 72.1,3.4 72.1,0.5 72.1,2 72.1,-1.5 72.1,4.9 72.1,-1.6 72.1,2.2 m -1369.8,-226 72.1,-27.4 72.1,112 72.1,80.5 72.1,30 72.1,9.3 72.1,2.9 72.1,7.4 72.1,5.4 72.1,-3.5 72.1,-2.8 72,6.9 72.1,-3.4 72.1,0.9 72.1,2.7 72.1,-2.3 72.1,4.9 72.1,-0.8 72.1,2.4 72.1,1.8 M 37.3,860.6 l 72.1,-33 72.1,132.2 72.1,93.4 72.1,43.6 72.1,-0.1 72.1,7.6 72.1,-0.3 72.1,1.4 72.1,3.9 72.1,-5.2 72,0.5 72.1,-0.5 72.1,1.9 72.1,0.2 72.1,2.1 72.1,-1.9 72.1,4.9 72.1,-0.7 72.1,2.5 m -1369.8,-483 72.1,184.5 72.1,164.3 72.1,89.3 72.1,22.7 72.1,10.9 72.1,-2.8 72.1,2.1 72.1,0.8 72.1,1.5 72.1,3.8 72,-1.5 72.1,0.4 72.1,-1.4 72.1,1 72.1,2.2 72.1,1.6 72.1,-0.9 72.1,2.3 72.1,2.1"
       id="path90"
       style="stroke:#b200ff" />
    <path
       d="m 37.3,912.6 72.1,-22.7 72.1,96.6 72.1,86.6 72.1,9.9 72.1,10.4 72.1,11.4 72.1,-2.1 72.1,0.2 72.1,-0.4 72.1,4.6 72,-5.3 72.1,4.3 72.1,-1.8 72.1,1.8 72.1,-0.4 72.1,0.7 72.1,3.5 72.1,-1.3 72.1,3.5 M 37.3,838.3 l 72.1,31.1 72.1,115.5 72.1,77.8 72.1,25.1 72.1,12.2 72.1,4.7 72.1,1.4 72.1,-1.1 72.1,0.5 72.1,1.9 72,-3.7 72.1,3.1 72.1,-1 72.1,1.3 72.1,-0.6 72.1,1.8 72.1,1.5 72.1,0.6 72.1,2.3 M 37.3,812.3 l 72.1,79 72.1,128.5 72.1,33.2 72.1,28.8 72.1,16.3 72.1,3.5 72.1,0 72.1,2.6 72.1,-3.3 72.1,3.9 72,0.6 72.1,0.9 72.1,-1.6 72.1,2.8 72.1,1.8 72.1,-0.9 72.1,0.6 72.1,1.6 72.1,1.4"
       id="path92"
       style="stroke:#b200ff" />
  </g>
  <g
     style="color:#157545;fill:none;stroke:currentColor;stroke-width:1;stroke-linecap:butt;stroke-linejoin:miter"
     id="g94"
     transform="matrix(0.97135718,0,0,0.93362584,42.392299,6.246435)">
    <path
       d="m 37.3,183.9 72.1,0 72.1,0 72.1,0 72.1,116.2 72.1,505.2 72.1,222.7 72.1,42.9 72.1,20.5 72.1,6.3 72.1,8.5 72,1.1 72.1,0 72.1,0.7 72.1,4.9 72.1,-0.6 72.1,0.5 72.1,-1.1 72.1,0.9 72.1,1.6 M 37.3,183.9 l 72.1,0 72.1,0 72.1,15.1 72.1,149.3 72.1,537.8 72.1,152.6 72.1,39.2 72.1,17.8 72.1,9.3 72.1,-1.2 72,3 72.1,2.6 72.1,0.4 72.1,0.9 72.1,2.2 72.1,-0.7 72.1,2.1 72.1,-0.8 72.1,1.5 M 37.3,183.9 l 72.1,0 72.1,0 72.1,0 72.1,129.2 72.1,506.4 72.1,197.3 72.1,49.4 72.1,19 72.1,14.4 72.1,4.2 72,-0.9 72.1,5.8 72.1,1.4 72.1,-1 72.1,1.2 72.1,1.7 72.1,0 72.1,0.8 72.1,-0.3 M 37.3,183.9 l 72.1,0 72.1,0 72.1,0 72.1,143.8 72.1,487.2 72.1,221.1 72.1,37.5 72.1,19.7 72.1,7.5 72.1,3.1 72,3 72.1,2.7 72.1,-0.2 72.1,2.4 72.1,0 72.1,1.6 72.1,-0.8 72.1,-0.5 72.1,2.1 M 37.3,183.9 l 72.1,0 72.1,0 72.1,0 72.1,172.6 72.1,409.5 72.1,250.7 72.1,54.3 72.1,20.4 72.1,5.4 72.1,4 72,6.7 72.1,0.2 72.1,2.8 72.1,-0.6 72.1,2.6 72.1,-1.8 72.1,0.6 72.1,0.8 72.1,0.9 M 37.3,183.9 l 72.1,0 72.1,0 72.1,0 72.1,142.8 72.1,551.7 72.1,161.4 72.1,37.1 72.1,16.5 72.1,8.1 72.1,5 72,0.7 72.1,2.6 72.1,0.5 72.1,2.5 72.1,-0.9 72.1,-0.2 72.1,1.3 72.1,0.7 72.1,1.7 M 37.3,183.9 l 72.1,0 72.1,0 72.1,2.1 72.1,182.4 72.1,463.8 72.1,199.4 72.1,39.7 72.1,22.4 72.1,7.6 72.1,1.6 72,3.3 72.1,3.6 72.1,-0.2 72.1,-0.4 72.1,-0.6 72.1,2.4 72.1,3.2 72.1,-1.1 72.1,1.7 M 37.3,183.9 l 72.1,0 72.1,6.3 72.1,-6.3 72.1,197.8 72.1,406.4 72.1,244.3 72.1,46.7 72.1,18.4 72.1,5.7 72.1,3.9 72,-1.9 72.1,3.1 72.1,-0.4 72.1,4.8 72.1,1.7 72.1,-0.8 72.1,1 72.1,-2.4 72.1,1.9 M 37.3,183.9 l 72.1,0 72.1,3.3 72.1,3 72.1,158.1 72.1,513 72.1,180.3 72.1,40.1 72.1,13.1 72.1,7.4 72.1,3 72,4.7 72.1,-0.5 72.1,0.6 72.1,2.2 72.1,0.3 72.1,0.4 72.1,0 72.1,-0.8 72.1,2.2 M 37.3,183.9 l 72.1,9.8 72.1,-8.6 72.1,-1.2 72.1,199.4 72.1,488.2 72.1,174.8 72.1,32.3 72.1,17.5 72.1,8.3 72.1,2.2 72,0.5 72.1,3.3 72.1,-0.6 72.1,2.5 72.1,0.4 72.1,-0.7 72.1,0.4 72.1,1.4 72.1,1.8 M 37.3,183.9 l 72.1,7.4 72.1,17.9 72.1,-17.1 72.1,145 72.1,530.4 72.1,175.7 72.1,38.8 72.1,10.8 72.1,9.1 72.1,8.1 72,0.7 72.1,-0.8 72.1,0.2 72.1,-1.5 72.1,3.8 72.1,1.1 72.1,0.5 72.1,-0.7 72.1,0.5 M 37.3,183.9 l 72.1,0 72.1,0 72.1,62.5 72.1,169.1 72.1,355.3 72.1,259.7 72.1,44.7 72.1,19.9 72.1,4.4 72.1,5.5 72,2.9 72.1,-2 72.1,3.8 72.1,0.7 72.1,1.8 72.1,-0.2 72.1,0.7 72.1,0.9 72.1,0.7 M 37.3,183.9 l 72.1,0 72.1,0 72.1,35.9 72.1,196.9 72.1,414.9 72.1,198.5 72.1,50.7 72.1,12.4 72.1,7 72.1,3.5 72,-0.6 72.1,6.6 72.1,-0.4 72.1,-0.6 72.1,5.5 72.1,-2 72.1,0.2 72.1,1.8 72.1,0.4 M 37.3,183.9 l 72.1,0 72.1,0 72.1,12.1 72.1,199.1 72.1,479.5 72.1,162.4 72.1,41.8 72.1,16.2 72.1,4.9 72.1,6.1 72,0.9 72.1,2.3 72.1,3.4 72.1,-2.9 72.1,3.9 72.1,-2.6 72.1,1.4 72.1,1.7 72.1,0.2 M 37.3,183.9 l 72.1,0 72.1,3 72.1,-3 72.1,122.7 72.1,558 72.1,165.3 72.1,42.6 72.1,19.3 72.1,7.8 72.1,3.7 72,1.7 72.1,3.7 72.1,3.7 72.1,-1.7 72.1,1.5 72.1,-2.9 72.1,3.3 72.1,1.3 72.1,-1 m -1369.8,-929 72.1,0 72.1,0 72.1,9.1 72.1,197.3 72.1,425.9 72.1,221 72.1,41.5 72.1,13.9 72.1,10.1 72.1,2 72,2.6 72.1,0.3 72.1,2.4 72.1,0.8 72.1,2.7 72.1,-1.8 72.1,0.4 72.1,-1 72.1,2.8 M 37.3,224.8 l 72.1,-36.7 72.1,-1.9 72.1,-2.3 72.1,165.6 72.1,517.3 72.1,173 72.1,35.6 72.1,18.8 72.1,7.1 72.1,3.9 72,-1.1 72.1,6.4 72.1,-0.2 72.1,-1.5 72.1,4.6 72.1,-2 72.1,2.7 72.1,-2.2 72.1,2.5 M 37.3,183.9 l 72.1,0 72.1,0.7 72.1,26.3 72.1,156.3 72.1,466.9 72.1,211.5 72.1,34.2 72.1,16.9 72.1,7.9 72.1,2.8 72,3 72.1,1.2 72.1,-2.6 72.1,2.6 72.1,1.7 72.1,0.6 72.1,1.3 72.1,-2.6 72.1,1.7 M 37.3,183.9 l 72.1,0 72.1,0 72.1,2.2 72.1,212.4 72.1,493.1 72.1,154.3 72.1,36.6 72.1,12.8 72.1,9.6 72.1,1.7 72,0 72.1,4.3 72.1,1.1 72.1,-0.2 72.1,0.6 72.1,-1.5 72.1,1.5 72.1,1.4 72.1,0.8 M 37.3,183.9 l 72.1,4.7 72.1,0.2 72.1,-4.5 72.1,182.1 72.1,492.9 72.1,173.5 72.1,45.5 72.1,18 72.1,5.3 72.1,3.9 72,1.8 72.1,1.8 72.1,-0.4 72.1,2.9 72.1,1.2 72.1,0.1 72.1,-0.5 72.1,2.2 72.1,0 M 37.3,183.9 l 72.1,0 72.1,0 72.1,0 72.1,179.2 72.1,433.5 72.1,236.3 72.1,46.8 72.1,16.1 72.1,7 72.1,4.5 72,-2.5 72.1,3.4 72.1,5.3 72.1,-2.3 72.1,3.3 72.1,-2.1 72.1,0.3 72.1,-1.2 72.1,2.8 M 37.3,183.9 l 72.1,0 72.1,0 72.1,0 72.1,156.8 72.1,462.3 72.1,231.5 72.1,43.7 72.1,9.7 72.1,14.2 72.1,1 72,3 72.1,4.8 72.1,-0.7 72.1,3.5 72.1,0 72.1,-2 72.1,0 72.1,1.9 72.1,0.8 M 37.3,183.9 l 72.1,0 72.1,0 72.1,0 72.1,186.7 72.1,480.6 72.1,191.4 72.1,35.2 72.1,15.4 72.1,4.3 72.1,12.7 72,-1 72.1,1.6 72.1,1 72.1,-0.4 72.1,-1.1 72.1,1.6 72.1,1.1 72.1,1.6 72.1,0.6 M 37.3,183.9 l 72.1,0 72.1,0 72.1,0 72.1,143.6 72.1,554.1 72.1,167.5 72.1,29.2 72.1,16.3 72.1,8.1 72.1,4 72,-1 72.1,3.1 72.1,-0.6 72.1,3.4 72.1,0.1 72.1,1.8 72.1,-1.8 72.1,-2.3 72.1,5.2 M 37.3,183.9 l 72.1,0 72.1,0 72.1,0.8 72.1,145.1 72.1,483.2 72.1,223.3 72.1,42.6 72.1,16.1 72.1,6.8 72.1,0.3 72,5.3 72.1,2 72.1,-0.2 72.1,1.9 72.1,2.3 72.1,-1.1 72.1,2.1 72.1,-2.5 72.1,2.2 M 37.3,183.9 l 72.1,2.8 72.1,-2.8 72.1,0 72.1,203.6 72.1,431.1 72.1,208.7 72.1,51.9 72.1,12.6 72.1,12.3 72.1,-0.9 72,4.7 72.1,0.1 72.1,3.8 72.1,-0.9 72.1,2.5 72.1,-1.2 72.1,-2 72.1,2.5 72.1,1.2"
       id="path96"
       style="stroke:#e5e500" />
    <path
       d="m 37.3,183.9 72.1,0 72.1,1.6 72.1,-1.6 72.1,179.4 72.1,435.4 72.1,238.5 72.1,42.1 72.1,16.7 72.1,4 72.1,4.9 72,-0.7 72.1,5.6 72.1,0.7 72.1,3 72.1,-3.1 72.1,0.9 72.1,2.5 72.1,-1 72.1,2.5 M 37.3,183.9 l 72.1,0.5 72.1,9 72.1,-9.5 72.1,189.8 72.1,424.3 72.1,238.2 72.1,37.4 72.1,21.8 72.1,8 72.1,1.4 72,3 72.1,0.7 72.1,1 72.1,2.6 72.1,-0.4 72.1,-0.3 72.1,2.2 72.1,-2.9 72.1,5.5 M 37.3,183.9 l 72.1,0 72.1,0 72.1,0 72.1,164.1 72.1,463.9 72.1,212 72.1,49.3 72.1,18.8 72.1,6.1 72.1,6.6 72,2.7 72.1,2.1 72.1,0.6 72.1,0.9 72.1,0.9 72.1,0.9 72.1,-0.4 72.1,0.7 72.1,1.1"
       id="path98"
       style="stroke:#e5e500" />
  </g>
  <g
     style="color:#000094;fill:none;stroke:currentColor;stroke-width:1;stroke-linecap:butt;stroke-linejoin:miter"
     id="g100"
     transform="matrix(0.97135718,0,0,0.93362584,42.392299,6.246435)">
    <path
       d="m 37.3,183.9 72.1,253.3 72.1,169.6 72.1,154.7 72.1,192.3 72.1,101 72.1,35.2 72.1,15.4 72.1,3.1 72.1,4.2 72.1,1.3 72,-1.9 72.1,1.4 72.1,1.1 72.1,2.2 72.1,-0.4 72.1,-3.1 72.1,2.9 72.1,-1.5 72.1,1.5 M 37.3,183.9 l 72.1,188.2 72.1,263.1 72.1,193.8 72.1,143.4 72.1,87.2 72.1,40.9 72.1,3.5 72.1,6.5 72.1,2.4 72.1,2.6 72,-1 72.1,3 72.1,-2.6 72.1,-1.1 72.1,1.2 72.1,0.4 72.1,-1 72.1,1.8 72.1,-0.3 M 37.3,247.1 l 72.1,253.3 72.1,153.6 72.1,204.9 72.1,110.9 72.1,95.1 72.1,34.7 72.1,7.5 72.1,4.3 72.1,3 72.1,-0.3 72,0.9 72.1,-1.1 72.1,-0.2 72.1,0.5 72.1,3.2 72.1,-1.5 72.1,-0.5 72.1,0.8 72.1,-0.5 M 37.3,183.9 l 72.1,270 72.1,209.9 72.1,172.2 72.1,140.3 72.1,79.8 72.1,40.9 72.1,6.4 72.1,7.2 72.1,-1.1 72.1,4.5 72,-0.1 72.1,0 72.1,1.3 72.1,-0.8 72.1,1 72.1,1.3 72.1,-2.3 72.1,1 72.1,1.8 M 37.3,183.9 l 72.1,140.4 72.1,328.1 72.1,252.6 72.1,98 72.1,56.2 72.1,37.3 72.1,11.8 72.1,3.1 72.1,0.7 72.1,0.5 72,2.5 72.1,-0.7 72.1,-1.8 72.1,2.1 72.1,0.2 72.1,1.1 72.1,-2.7 72.1,0.6 72.1,2.2 m -1369.8,-289 72.1,-116.6 72.1,-1 72.1,159.3 72.1,124.2 72.1,69.8 72.1,30.2 72.1,17.2 72.1,3 72.1,-2.5 72.1,3.5 72,-0.7 72.1,1.8 72.1,-1.7 72.1,0.9 72.1,0.8 72.1,-0.8 72.1,2.9 72.1,-4.2 72.1,2.5 M 37.3,183.9 l 72.1,258.4 72.1,192.2 72.1,167.3 72.1,148.3 72.1,110.4 72.1,32.4 72.1,14.4 72.1,3.3 72.1,1.8 72.1,-0.1 72,1 72.1,-0.2 72.1,0.8 72.1,0.6 72.1,-0.4 72.1,0.5 72.1,-1.4 72.1,3.2 72.1,-0.4 M 37.3,183.9 l 72.1,80.9 72.1,279.8 72.1,212.1 72.1,186 72.1,110.8 72.1,44.2 72.1,7.8 72.1,5.8 72.1,2.7 72.1,-2.1 72,1.8 72.1,2.5 72.1,0.7 72.1,-2.7 72.1,0.5 72.1,-0.1 72.1,0 72.1,-2.2 72.1,3 M 37.3,224.8 l 72.1,177.5 72.1,271.5 72.1,167.8 72.1,98.9 72.1,118.6 72.1,34.7 72.1,12.7 72.1,2.7 72.1,4.9 72.1,0.3 72,-1.5 72.1,1.9 72.1,-1.4 72.1,0.2 72.1,1.5 72.1,-0.3 72.1,0.4 72.1,-0.2 72.1,0.2 M 37.3,269.4 l 72.1,89.3 72.1,318.1 72.1,218.4 72.1,91.8 72.1,70.5 72.1,34.7 72.1,12.2 72.1,7.8 72.1,0.4 72.1,-1.4 72,4.3 72.1,-3.4 72.1,0.6 72.1,1.8 72.1,0.7 72.1,-2.3 72.1,1.6 72.1,0.1 72.1,0.9 M 37.3,183.9 l 72.1,259.8 72.1,287.5 72.1,191.5 72.1,74.8 72.1,51.3 72.1,43 72.1,13.1 72.1,4.3 72.1,5.6 72.1,-2.5 72,0.7 72.1,-0.2 72.1,-0.6 72.1,2 72.1,2.3 72.1,-1.4 72.1,-0.1 72.1,1.8 72.1,-0.8 M 37.3,183.9 l 72.1,154.8 72.1,237.5 72.1,325.5 72.1,90.6 72.1,55.7 72.1,40.6 72.1,15.8 72.1,4.7 72.1,3 72.1,2.3 72,-0.4 72.1,-0.6 72.1,0.3 72.1,0.5 72.1,0 72.1,-0.2 72.1,3.6 72.1,-3 72.1,0.8 M 37.3,295.4 109.4,499 l 72.1,290 72.1,121.6 72.1,98.1 72.1,49.3 72.1,26.6 72.1,24.7 72.1,1.3 72.1,-2.2 72.1,4.7 72,0.4 72.1,2.7 72.1,-0.5 72.1,-1.3 72.1,0.6 72.1,-0.5 72.1,1.2 72.1,-3.6 72.1,3.3 M 37.3,183.9 l 72.1,228.2 72.1,228.4 72.1,189 72.1,136.3 72.1,91.6 72.1,43.7 72.1,6.9 72.1,4.6 72.1,2.7 72.1,2.3 72,-5.5 72.1,2 72.1,0.9 72.1,0.7 72.1,1.4 72.1,-1 72.1,-1.4 72.1,0.5 72.1,1.1 M 37.3,183.9 l 72.1,182.7 72.1,254.2 72.1,256.3 72.1,109.1 72.1,60.3 72.1,43.1 72.1,14.9 72.1,3.7 72.1,1.2 72.1,0.6 72,5.7 72.1,-1.9 72.1,0.7 72.1,0.7 72.1,-3.5 72.1,2.7 72.1,1 72.1,-0.6 72.1,-0.1 M 37.3,183.9 l 72.1,70.7 72.1,360.4 72.1,214.7 72.1,141.5 72.1,80.9 72.1,35 72.1,19.3 72.1,4 72.1,2.7 72.1,0.5 72,-2.2 72.1,3 72.1,0.9 72.1,-1.8 72.1,0.6 72.1,2.1 72.1,0.7 72.1,-0.4 72.1,-1.4 M 37.3,183.9 l 72.1,72 72.1,350.9 72.1,215.7 72.1,119.3 72.1,97.8 72.1,55.3 72.1,11 72.1,4.5 72.1,-2.2 72.1,7.3 72,-2.7 72.1,2.7 72.1,-2.3 72.1,2.4 72.1,-1.1 72.1,-0.6 72.1,5.2 72.1,-4.7 72.1,0.5 m -1369.8,-931 72.1,114.3 72.1,251.7 72.1,269.4 72.1,141.8 72.1,80.4 72.1,49.9 72.1,15.4 72.1,3.7 72.1,2.2 72.1,-0.9 72,2.2 72.1,-1.5 72.1,2.5 72.1,-1.3 72.1,1.8 72.1,-2.9 72.1,2.7 72.1,0.5 72.1,-0.9 m -1369.8,-931 72.1,74.4 72.1,295.8 72.1,264.1 72.1,149 72.1,86.7 72.1,41.7 72.1,8.1 72.1,5.2 72.1,4.6 72.1,2 72,-0.9 72.1,-1.1 72.1,1.1 72.1,-0.3 72.1,-0.6 72.1,2.1 72.1,-2.7 72.1,1.9 72.1,1 M 37.3,288 l 72.1,178 72.1,177.5 72.1,225.6 72.1,105.8 72.1,85 72.1,35.1 72.1,11 72.1,1.7 72.1,5.6 72.1,-0.6 72,2 72.1,1.6 72.1,0.7 72.1,-3.3 72.1,0.5 72.1,0.6 72.1,1.2 72.1,-1.5 72.1,1.8 M 37.3,789.9 l 72.1,-130.1 72.1,35.3 72.1,144.5 72.1,128.5 72.1,93.8 72.1,35.9 72.1,8.3 72.1,3.5 72.1,-1.5 72.1,6 72,0.1 72.1,-0.5 72.1,-0.1 72.1,2 72.1,-3.5 72.1,2 72.1,0.5 72.1,1.5 72.1,-1 M 37.3,183.9 109.4,321 l 72.1,241.9 72.1,258.3 72.1,133.6 72.1,97.1 72.1,38.5 72.1,15.2 72.1,0.8 72.1,3 72.1,4 72,1.3 72.1,0.8 72.1,-0.8 72.1,-0.5 72.1,-0.7 72.1,-2.1 72.1,6 72.1,-3.1 72.1,1.8 M 37.3,183.9 l 72.1,167.3 72.1,239.6 72.1,199.5 72.1,165.7 72.1,97.1 72.1,37.5 72.1,10.2 72.1,7.4 72.1,1 72.1,2.4 72,1.8 72.1,0.2 72.1,0.7 72.1,-0.5 72.1,0.3 72.1,1.6 72.1,-0.8 72.1,1.3 72.1,-0.8 M 37.3,856.9 l 72.1,-194.8 72.1,-36 72.1,201.8 72.1,139.7 72.1,89.9 72.1,40.7 72.1,6.7 72.1,4.6 72.1,2.8 72.1,1.2 72,-1.7 72.1,2.5 72.1,-0.6 72.1,1.4 72.1,1.4 72.1,-0.6 72.1,-1 72.1,0.9 72.1,-0.2 M 37.3,574.3 l 72.1,-138 72.1,133.6 72.1,315.2 72.1,107.2 72.1,50.7 72.1,48.3 72.1,15.2 72.1,2.5 72.1,6.1 72.1,-2.9 72,0.5 72.1,0.1 72.1,0.2 72.1,0.5 72.1,1 72.1,-0.9 72.1,0.7 72.1,1.3 72.1,0.3 m -1369.8,-932 72.1,284 72.1,198.4 72.1,179.6 72.1,117.1 72.1,86.4 72.1,44.6 72.1,7.7 72.1,6.8 72.1,0.8 72.1,2.5 72,2.5 72.1,-0.9 72.1,-0.1 72.1,2.1 72.1,-1.7 72.1,1.3 72.1,-3.7 72.1,1.3 72.1,3.1"
       id="path102"
       style="stroke:#00ffff" />
    <path
       d="m 37.3,414.4 72.1,104.1 72.1,181.7 72.1,183.8 72.1,88.6 72.1,89.4 72.1,35.3 72.1,7.3 72.1,7.3 72.1,-0.7 72.1,-0.3 72,2.6 72.1,1.5 72.1,0.1 72.1,-1.3 72.1,-1.1 72.1,1.3 72.1,1.1 72.1,0 72.1,0.4 M 37.3,604 l 72.1,-99.9 72.1,150.4 72.1,208.7 72.1,121 72.1,66.1 72.1,41.7 72.1,14.2 72.1,5 72.1,0.8 72.1,-2.3 72,4.8 72.1,-1.9 72.1,1.7 72.1,2.4 72.1,-4.1 72.1,2.4 72.1,2.7 72.1,-5 72.1,2.7 M 37.3,183.9 l 72.1,257.9 72.1,294.7 72.1,116.5 72.1,127 72.1,76.3 72.1,34.7 72.1,15.4 72.1,4.9 72.1,0.8 72.1,0.4 72,-1.5 72.1,2.4 72.1,1.9 72.1,-0.7 72.1,0.7 72.1,0.7 72.1,-2 72.1,2.8 72.1,-0.4"
       id="path104"
       style="stroke:#00ffff" />
  </g>
  <g
     style="fill:none; color:black; stroke:currentColor; stroke-width:1.00; stroke-linecap:butt; stroke-linejoin:miter"
     id="g106" />
  <flowRoot
     xml:space="preserve"
     id="flowRoot2930"
     style="font-size:40px;font-style:normal;font-weight:normal;fill:#000000;fill-opacity:1;stroke:none;font-family:Bitstream Vera Sans"
     transform="translate(6.8912949,-15.505414)"><flowRegion
       id="flowRegion2932"><rect
         id="rect2934"
         width="901.0368"
         height="74.081421"
         x="377.2984"
         y="1079.3643" /></flowRegion><flowPara
       id="flowPara2936"
       style="font-size:64px">Distance From Centroid</flowPara></flowRoot>  <flowRoot
     transform="matrix(0,-1,1,0,-1085.9635,1040.668)"
     style="font-size:40px;font-style:normal;font-weight:normal;fill:#000000;fill-opacity:1;stroke:none;font-family:Bitstream Vera Sans"
     id="flowRoot2954"
     xml:space="preserve"><flowRegion
       id="flowRegion2956"><rect
         y="1079.3643"
         x="377.2984"
         height="74.081421"
         width="901.0368"
         id="rect2958" /></flowRegion><flowPara
       style="font-size:64px"
       id="flowPara2960">Intensity</flowPara></flowRoot></svg>
